<?xml version="1.0" encoding="UTF-8" standalone="no"?><!DOCTYPE svg PUBLIC "-//W3C//DTD SVG 1.1//EN" "http://www.w3.org/Graphics/SVG/1.1/DTD/svg11.dtd"><svg width="100%" height="100%" viewBox="0 0 8535 5339" version="1.1" xmlns="http://www.w3.org/2000/svg" xmlns:xlink="http://www.w3.org/1999/xlink" xml:space="preserve" xmlns:serif="http://www.serif.com/" style="fill-rule:evenodd;clip-rule:evenodd;stroke-linejoin:round;stroke-miterlimit:2;"><rect id="Artboard1" x="0" y="0" width="8534.222" height="5338.889" style="fill:none;"/><g id="FACES"><g><path d="M6091.96,3360.74l150.383,74.314l2.017,317.836l-49.731,-31.972l-0.751,-257.859c-0.013,-4.396 -2.616,-8.371 -6.641,-10.14l-95.245,-41.858l-0.033,-50.321Z" style="fill:#f00;"/><path d="M6564.616,3302.828l5.472,296.157l-292.426,148.707l-1.983,-312.364l288.937,-132.5Z" style="fill:#f00;"/><path d="M7284.744,3370.364l-1224.118,700.773l-1.528,-214.923c-0.028,-3.977 -2.181,-7.636 -5.643,-9.594c-3.463,-1.957 -7.708,-1.914 -11.13,0.113l-597.67,353.992l-2.099,-266.024c-0.045,-5.672 -4.331,-10.317 -9.825,-10.95l-35.322,-30.002l744.069,-424.532l19.11,8.398l0.727,249.628c-2.206,4.323 -1.319,9.552 2.059,12.912c1.499,2.115 3.72,3.683 6.302,4.345l79.701,51.24c5.162,3.319 12.036,1.824 15.355,-3.337l0.708,-1.101l332.161,-168.913c3.793,-1.929 6.151,-5.855 6.073,-10.109l-6.23,-337.189c-0.068,-3.671 -1.944,-7.071 -5.014,-9.085l-19.854,-13.026l705.466,-393.906l6.703,511.289Z" style="fill:#f00;"/><path d="M4940.494,4062.737l137.673,78.658l0,315.063c-15.629,-7.958 -35.032,-17.883 -45.955,-23.653c-0.855,-51.518 -6.995,-294.116 -6.995,-294.116l-1.104,1.132c0.874,-5.336 -2.222,-10.529 -7.336,-12.297l-74.266,-25.663l-2.017,-39.125Z" style="fill:#f00;"/><path d="M5094.64,4112.417l-139.764,-79.852l321.016,-198.294l117.252,99.592l-298.504,178.554Z" style="fill:#f00;"/><path d="M5411.881,4271.837l-74.899,46.088c-4.109,0.108 -7.658,2.444 -9.49,5.839l-215.993,132.907l-0,-315.497l297.944,-178.219l2.437,308.882Z" style="fill:#f00;"/><path d="M5012.45,4458.338c-2.25,0 -4.444,-0.683 -6.294,-1.954c0.628,0.435 1.765,1.161 3.385,2.068c12.588,7.045 77.768,40.031 77.768,40.031l3.329,1.684c1.14,0.887 2.432,1.534 3.796,1.921l0.938,0.475c3.444,1.743 7.547,1.573 10.835,-0.449c2.257,-1.387 3.908,-3.51 4.723,-5.953l215.432,-132.562l0.806,142.29l-1270.501,738.645l0,-560.38l908.035,-539.354l27.565,9.525c1.352,53.746 5.953,237.774 6.63,279.91c0.074,4.581 0.075,7.9 0.075,7.9c0,0.411 0.023,0.817 0.066,1.216l0.014,0.604l0.082,0.08c0.332,1.92 1.157,3.672 2.34,5.12l-1.494,-0.978l0.861,2.001l10.228,6.769l-7.855,-3.253l1.311,1.323l7.926,3.324Z" style="fill:#f00;"/><path d="M3706.964,4872.787l3.848,-353.54l312.521,165.455l0,560.603l-314.748,-177.962l-1.622,-194.556Z" style="fill:#f00;"/><path d="M3551.018,4768.692c-0.244,-59.262 -1.628,-386.605 -2.761,-485.562l257.232,137.013l-128.187,61.303c-3.786,1.811 -6.229,5.601 -6.315,9.797c-0.086,4.196 2.201,8.083 5.91,10.047l0.772,0.409l-3.735,343.082l-122.916,-76.089Z" style="fill:#f00;"/><path d="M2820.164,4412.802l154.796,91.452c3.307,1.954 7.39,2.061 10.795,0.283l48.271,-25.207c3.661,-1.912 5.96,-5.697 5.968,-9.828l0.562,-293.817l321.489,190.103l5.1,484.369l-549.305,-304.326l2.325,-133.029Z" style="fill:#f00;"/><path d="M3395.372,4365.1l119.161,-79.108l3.131,483.148l-117.212,78.474l-5.08,-482.513Z" style="fill:#f00;"/><path d="M1398.299,3551.169l-2.708,-532.402l305.294,175.354l-138.613,102.128c-3.008,2.216 -4.7,5.795 -4.505,9.525c0.195,3.731 2.252,7.114 5.474,9.004l0.515,0.302l-4.153,343.625l-161.305,-107.537Z" style="fill:#f00;"/><path d="M3103.726,3988.157l-127.425,157.588l-349.729,-203.249l137.327,-126.619l339.827,172.28Z" style="fill:#f00;"/><path d="M1596.858,3334.497l1002.283,587.951l-13.559,12.502c-2.279,2.101 -3.576,5.058 -3.579,8.157l-0.214,202.949l-686.03,-397.455c-3.413,-1.978 -7.619,-1.997 -11.051,-0.051c-3.431,1.946 -5.574,5.565 -5.629,9.51l-3.449,245.887l-284.794,-171.195l6.021,-498.255Z" style="fill:#f00;"/><path d="M2615.303,3974.501l348.323,202.432l0.44,282.169l-349.056,-206.219l0.293,-278.383Z" style="fill:#f00;"/><path d="M1224.423,3667.63l-796.834,-453.67c-3.437,-1.957 -5.575,-5.593 -5.613,-9.548l-5.753,-591.583c-0.03,-3.047 1.17,-5.819 3.136,-7.845c0.733,-2.727 2.499,-5.177 5.131,-6.712l4292.389,-2504.333c2.639,-1.54 5.651,-1.869 8.392,-1.157c2.74,-0.714 5.752,-0.388 8.393,1.15l3611.333,2102.5c3.403,1.981 5.362,5.492 5.513,9.154c1.184,1.763 1.876,3.884 1.879,6.168l0.894,573.395c0.006,3.992 -2.129,7.68 -5.594,9.662l-746.036,426.766c-3.444,1.97 -7.678,1.954 -11.107,-0.042c-3.429,-1.996 -5.534,-5.67 -5.521,-9.638l0.011,-3.286l-113.576,-74.345l-155.139,101.876l1.901,144.976c0.046,3.482 -1.516,6.612 -3.997,8.682c-0.947,1.87 -2.433,3.493 -4.388,4.612l-1254.889,718.389c-4.227,2.42 -9.375,1.756 -12.844,-1.283l-3.413,0.024c-6.136,0.044 -11.146,-4.895 -11.19,-11.032l-1.461,-205.388l-581.082,344.167l0.375,47.471c0.048,6.136 -4.887,11.15 -11.023,11.198l-1.287,0.01l-73.442,45.191l0.993,175.41c0.023,3.98 -2.086,7.668 -5.526,9.669l-1306.67,759.673c-1.381,0.803 -2.862,1.274 -4.354,1.44c-3.245,1.739 -7.284,1.828 -10.726,-0.118l-352.294,-199.191c-3.458,-1.955 -5.609,-5.607 -5.642,-9.58l-1.639,-196.607l-138.979,-86.033l-149.897,100.356c-3.391,2.27 -7.753,2.499 -11.363,0.596c-3.61,-1.903 -5.886,-5.632 -5.929,-9.712l-0.006,-0.572l-577.545,-319.972c-3.595,-1.992 -5.797,-5.804 -5.725,-9.913l2.889,-165.295l-200.043,-118.184c-3.387,-2.001 -5.464,-5.644 -5.459,-9.578l0.085,-80.989l-669.871,-388.093l-3.459,246.599c-0.056,3.976 -2.232,7.62 -5.708,9.553c-3.475,1.934 -7.719,1.863 -11.127,-0.186l-328.846,-197.676c-3.383,-2.034 -5.434,-5.71 -5.386,-9.657l1.772,-146.65l-179.438,-119.626l-137.661,98.85c-3.37,2.42 -7.807,2.761 -11.507,0.884c-3.7,-1.877 -6.046,-5.658 -6.085,-9.806l-0.01,-1.12Zm3788.027,790.709l-7.926,-3.324l-1.311,-1.323l7.855,3.253l-10.228,-6.769l-0.861,-2.001l1.494,0.978c-1.183,-1.448 -2.008,-3.199 -2.34,-5.12l-0.082,-0.08l-0.014,-0.604c-0.044,-0.399 -0.066,-0.805 -0.066,-1.216c-0,-0 -0.002,-3.318 -0.075,-7.9c-0.678,-42.136 -5.279,-226.163 -6.63,-279.91l-27.565,-9.525l-908.035,539.354l0,560.38l1270.501,-738.645l-0.806,-142.29l-215.432,132.562c-0.814,2.443 -2.466,4.566 -4.723,5.953c-3.288,2.022 -7.391,2.192 -10.835,0.449l-0.938,-0.475c-1.364,-0.387 -2.657,-1.033 -3.796,-1.921l-3.329,-1.684c0,0 -65.18,-32.986 -77.768,-40.031c-1.62,-0.907 -2.756,-1.632 -3.385,-2.068c1.85,1.271 4.044,1.954 6.294,1.954Zm0,0c2.351,0 4.571,-0.739 6.402,-2.029l-3.073,-5.998l-3.329,8.028Zm-0.339,-8.722l-0.359,0.185c0.203,0.018 0.835,0.056 1.717,-0.065l0.224,-0.229l0.499,-0.753l0.383,-0.159l0.021,-0.05l-0.193,-0.11l-0.098,-0.057l-2.33,1.293l0.137,-0.057Zm-3.19,-1.312c-3.574,-2.18 -9.212,-6.607 -8.016,-12.323c-0.568,2.265 -0.421,4.702 0.512,6.954c1.4,3.379 4.343,5.801 7.813,6.586l-0.309,-1.216Zm-5.988,-16.351l0.893,-1.127c-0.419,0.419 -0.8,0.867 -1.141,1.337c0.075,-0.104 0.158,-0.173 0.248,-0.21Zm5.988,16.351c1.329,0.811 2.373,1.31 2.674,1.45c-0.532,-1.532 -6.535,-18.674 -8.662,-17.801l-0.703,0.883l-0.025,0.039c-0.567,0.925 -0.989,1.923 -1.263,2.958c3.108,-3.856 6.313,6.068 7.978,12.471Zm1083.039,-1087.565l0.033,50.321l95.245,41.858c4.024,1.769 6.628,5.744 6.641,10.14l0.751,257.859l49.731,31.972l-2.017,-317.836l-150.383,-74.314Zm1192.784,9.625l-6.703,-511.289l-705.466,393.906l19.854,13.026c3.07,2.014 4.946,5.414 5.014,9.085l6.23,337.189c0.079,4.255 -2.28,8.18 -6.073,10.109l-332.161,168.913l-0.708,1.101c-3.319,5.162 -10.193,6.656 -15.355,3.337l-79.701,-51.24c-2.582,-0.663 -4.803,-2.23 -6.302,-4.345c-3.378,-3.359 -4.265,-8.589 -2.059,-12.912l-0.727,-249.628l-19.11,-8.398l-744.069,424.532l35.322,30.002c5.494,0.633 9.78,5.278 9.825,10.95l2.099,266.024l597.67,-353.992c3.422,-2.027 7.667,-2.07 11.13,-0.113c3.463,1.957 5.615,5.616 5.643,9.594l1.528,214.923l1224.118,-700.773Zm-6834.898,-727.947l5.338,548.895l768.881,437.756l-4.832,-520.797l-769.387,-465.854Zm2653.88,1345.739l-339.827,-172.28l-137.327,126.619l349.729,203.249l127.425,-157.588Zm447.292,780.535l122.916,76.089l3.735,-343.082l-0.772,-0.409c-3.709,-1.964 -5.996,-5.85 -5.91,-10.047c0.086,-4.196 2.529,-7.986 6.315,-9.797l128.187,-61.303l-257.232,-137.013c1.134,98.957 2.517,426.299 2.761,485.562Zm-935.715,-794.191l-0.293,278.383l349.056,206.219l-0.44,-282.169l-348.323,-202.432Zm204.861,438.301l-2.325,133.029l549.305,304.326l-5.1,-484.369l-321.489,-190.103l-0.562,293.817c-0.008,4.131 -2.307,7.916 -5.968,9.828l-48.271,25.207c-3.405,1.778 -7.487,1.671 -10.795,-0.283l-154.796,-91.452Zm886.8,459.984l1.622,194.556l314.748,177.962l0,-560.603l-312.521,-165.455l-3.848,353.54Zm-2110.106,-1538.289l-6.021,498.255l284.794,171.195l3.449,-245.887c0.055,-3.944 2.198,-7.564 5.629,-9.51c3.431,-1.946 7.637,-1.926 11.051,0.051l686.03,397.455l0.214,-202.949c0.003,-3.099 1.301,-6.056 3.579,-8.157l13.559,-12.502l-1002.283,-587.951Zm3435.147,1110.745l0.018,0.009c0.127,-0.593 0.206,-1.203 0.234,-1.828l-0.252,1.819Zm-17.641,-296.169l0.018,0.728l0.834,-0.855c-0.281,0.053 -0.565,0.096 -0.852,0.127Zm2473.672,-1043.799l97.127,63.578l1.643,-509.621l-103.134,-79.508l4.364,525.551Zm-4092.664,1259.826l5.08,482.513l117.212,-78.474l-3.131,-483.148l-119.161,79.108Zm1606.355,84.217l5.088,3.329c0.479,0.15 0.97,0.267 1.47,0.351l-9.081,-8.897c0.269,1.423 0.816,2.8 1.636,4.045c0.272,0.413 0.568,0.804 0.887,1.172Zm8.436,5.519l-1.76,-1.724c-0.443,-0.067 -0.877,-0.161 -1.301,-0.278l3.061,2.003Zm-3757.594,-1346.483l4.799,517.264l107.583,-77.252l-2.668,-524.691l-109.714,84.68Zm6063.233,88.248l138.901,-91.213l-4.401,-530.032l-259.202,160.236l115.805,89.653c2.95,2.284 4.557,5.896 4.278,9.616c-0.024,0.318 -0.061,0.632 -0.111,0.944l4.73,360.797Zm-2295.418,1248.755l0.106,-0.054c0.09,-0.159 0.171,-0.323 0.244,-0.491l-0.08,0.044l-0.051,0.194l-0.219,0.307Zm1238.828,-1039.148l286.143,-131.219l-128.777,-84.491l-300.541,144.958l143.175,70.752Zm-3216.95,710.975l68.829,-38.431l0.171,-46.902l-69,85.333Zm1956.753,325.168l11.036,10.729c-0.092,-0.437 -0.373,-1.747 -0.8,-3.475c-3.078,-0.675 -5.768,-2.64 -7.333,-5.461c-1.416,-2.551 -1.751,-5.511 -1.022,-8.25c-0.327,0.421 -0.654,0.996 -0.977,1.746c-0.651,1.509 -0.948,3.118 -0.903,4.712Zm1565.601,-1139.524l-288.937,132.5l1.983,312.364l292.426,-148.707l-5.472,-296.157Zm-5166.317,248.341l161.305,107.537l4.153,-343.625l-0.515,-0.302c-3.222,-1.89 -5.279,-5.273 -5.474,-9.004c-0.195,-3.731 1.498,-7.31 4.505,-9.525l138.613,-102.128l-305.294,-175.354l2.708,532.402Zm3696.341,561.248l298.504,-178.554l-117.252,-99.592l-321.016,198.294l139.764,79.852Zm2525.496,-1451.906l-1.655,513.034l701.448,-401.259l-0.828,-531.101l-698.965,419.326Zm-2894.85,-2532.887l-4259.78,2485.308l770.187,466.338l135.841,-104.845c3.56,-2.747 8.424,-3.078 12.323,-0.839l363.159,208.59c3.255,1.87 5.346,5.256 5.559,9.004c0.213,3.748 -1.48,7.35 -4.502,9.576l-138.885,102.328l1015.568,595.745l127.893,-117.921c3.411,-3.145 8.418,-3.84 12.556,-1.742l373.497,189.349c3.747,1.9 6.102,5.75 6.087,9.951l-0.413,113.396c-0.015,4.012 -2.191,7.705 -5.694,9.661l-81.293,45.39l320.709,189.643l146.443,-97.219c3.401,-2.258 7.766,-2.469 11.369,-0.55l324.076,172.617c3.7,1.971 5.976,5.856 5.885,10.047c-0.091,4.191 -2.533,7.974 -6.315,9.783l-128.063,61.243l308.037,163.081l883.905,-525.022l-5.976,-2.065c-4.28,-1.479 -7.234,-5.407 -7.467,-9.93l-4.529,-87.859c-0.209,-4.051 1.806,-7.893 5.257,-10.025l361.402,-223.24c4.098,-2.532 9.361,-2.134 13.032,0.984l85.226,72.39l733.1,-418.274l-38.171,-16.775c-4.033,-1.772 -6.638,-5.76 -6.641,-10.165l-0.06,-92.449c-0.003,-4.268 2.44,-8.161 6.284,-10.015l348.532,-168.105c3.514,-1.695 7.66,-1.423 10.922,0.718l116.792,76.628l718.773,-401.337l-114.563,-88.69c-2.881,-2.23 -4.485,-5.731 -4.294,-9.37c0.191,-3.638 2.154,-6.952 5.253,-8.867l314.918,-194.679c3.934,-2.432 8.963,-2.173 12.626,0.651l130.819,100.851l699.53,-419.665l-3578.916,-2083.627Zm686.594,4144.213l-2.437,-308.882l-297.944,178.219l0,315.497l215.993,-132.907c1.832,-3.395 5.38,-5.732 9.49,-5.839l74.899,-46.088Zm-2414.479,189.014l9.284,-4.848l0.565,-295.52l-10.297,12.735l0.448,287.633Zm2021.184,-10.124l2.571,3.31l0.178,-0.137c0.303,-0.403 0.58,-0.829 0.827,-1.275c-1.251,-0.661 -2.446,-1.296 -3.577,-1.899Zm-78.092,-387.989l2.017,39.125l74.266,25.663c5.114,1.767 8.21,6.961 7.336,12.297l1.104,-1.132c0,0 6.14,242.597 6.995,294.116c10.923,5.769 30.325,15.695 45.955,23.653l0,-315.063l-137.673,-78.658Z" style="fill:#f00;stroke:#000;stroke-width:16.67px;"/><path d="M5014.192,4448.754l-2.081,0.862l2.291,-1.18l-0.211,0.318Z" style="fill:#2b232b;stroke:#000;stroke-width:16.67px;"/><path d="M2051.444,3362.589l-388.895,-299.886l-199.142,-93.344l-0.08,-0.038l-482.722,-230.948c-3.355,-1.605 -5.685,-4.783 -6.206,-8.465c-0.521,-3.683 0.834,-7.382 3.612,-9.856l639.176,-569.204c0.801,-0.714 1.702,-1.307 2.673,-1.763l1164.802,-546.038c3.593,-1.684 7.812,-1.325 11.068,0.944l112.234,78.204l598.303,-321.314l-232.853,-120.528c-3.533,-1.829 -5.819,-5.407 -5.993,-9.382c-0.174,-3.975 1.791,-7.739 5.151,-9.869l919.336,-582.902c2.812,-1.783 6.12,-2.146 9.083,-1.276c2.98,-0.808 6.28,-0.377 9.055,1.464l160.879,106.721l530.603,-212.362c2.103,-0.842 4.31,-0.995 6.374,-0.568c2.072,-0.389 4.277,-0.193 6.364,0.69l359.718,152.066l84.566,-92.812c3.289,-3.61 8.551,-4.649 12.965,-2.56l280.495,132.721c3.263,1.544 5.572,4.576 6.193,8.131c0.609,3.484 -0.478,7.044 -2.917,9.593l3.271,83.915c0.118,3.037 -1.013,5.99 -3.129,8.171l-27.928,28.775l610.161,346.603c0.574,0.326 1.118,0.703 1.626,1.126l642.701,535.639l95.089,-89.706c3.631,-3.425 9.1,-4.009 13.372,-1.427l394.311,238.309c3.067,1.854 5.052,5.073 5.33,8.646c0.278,3.573 -1.183,7.061 -3.926,9.368l0.001,91.713l344.838,163.778c3.459,1.643 5.828,4.951 6.27,8.754c0.442,3.804 -1.106,7.567 -4.096,9.959l-537.768,430.203c-0.811,0.649 -1.71,1.181 -2.669,1.581l-1374.632,572.477l-141.932,253.055c-1.186,2.115 -3.032,3.784 -5.256,4.752l-615.383,267.917l-385.783,401.212l0.106,1.649c0.277,4.236 0.658,8.128 0.658,8.128c0.066,0.677 0.07,1.354 0.013,2.022l0.154,-0.152l-0.013,1.308l-0.38,0.377c-0.322,1.41 -0.918,2.752 -1.761,3.944l1.687,-1.262l-0.443,1.528l-10.682,8.051l9.346,-5.101l-0.821,1.288l-9.39,5.17l8.51,-3.967c-0.765,0.912 -5.175,4.71 -13.071,10.187c-58.051,40.264 -351.751,231.249 -351.751,231.249l-3.252,2.115c-3.907,2.54 -8.984,2.373 -12.715,-0.42l-74.867,-56.035l-165.538,112.414c-4.425,3.005 -10.363,2.431 -14.13,-1.367l-174.436,-175.826l-320.607,-90.289c-1.462,-0.412 -2.824,-1.119 -4.002,-2.078l-354.765,-288.783l-599.909,-217.983c-0.938,-0.341 -1.803,-0.795 -2.584,-1.342l-77.908,41.815c-0.602,0.513 -1.264,0.966 -1.978,1.347c-3.477,1.855 -7.676,1.729 -11.036,-0.33l-423.79,-259.722c-2.483,-1.522 -4.157,-3.862 -4.889,-6.46c-1.863,-1.953 -3.023,-4.586 -3.067,-7.498l-1.003,-66.218Zm4805.945,-992.923c4.468,0 8.415,-2.661 10.163,-6.618l-6.752,-2.964l-3.412,9.582Zm-2470.838,34.156c0.64,0.061 0.994,0.026 0.994,0.026l-4.601,-0.998c-0.949,-0.432 -9.168,-5.048 -23.265,-13.196c-122.864,-71.009 -723.665,-422.529 -810.157,-473.138l-331.185,192.334l893.797,633.105c4.274,3.027 5.762,8.522 3.902,13.18l0.031,4.011c0.103,0.843 0.108,1.689 0.019,2.521l3.107,404.574c0.033,4.315 -2.435,8.258 -6.329,10.115l-1198.662,571.449l278.316,101.129c1.168,0.424 2.256,1.042 3.22,1.826l354.104,288.245l321.805,90.627c1.846,0.52 3.525,1.508 4.876,2.87l165.561,166.881l68.585,-46.575l2.357,-130.449c-1.196,-1.642 -1.941,-3.611 -2.099,-5.71c-0.305,-4.061 1.636,-7.963 5.059,-10.17l326.825,-210.729c2.369,-1.528 5.231,-2.098 8.004,-1.594l195.238,35.419l2.508,-1.667c3.335,-2.217 7.605,-2.468 11.177,-0.657c3.572,1.811 5.893,5.404 6.075,9.405l0.447,9.812c-0,0 0.452,9.942 1.075,22.792l367.253,-381.941c1.016,-1.056 2.23,-1.901 3.574,-2.486l421.709,-183.598l-525.059,-416.538l-7.119,-0.126c-6.136,-0.109 -11.021,-5.17 -10.913,-11.306l8.222,-464.556c0.058,-3.295 1.545,-6.23 3.86,-8.224c0.955,-2.962 3.143,-5.509 6.233,-6.821l1080.06,-458.736c3.884,-1.65 8.368,-0.957 11.573,1.789l728.979,624.603l421.328,-175.465l60.367,-48.293l-384.48,-168.829c1.408,0.618 2.929,0.938 4.467,0.938l-1.181,-0.464c0.365,-0.003 0.569,-0.036 0.569,-0.036l-7.287,-2.723l-188.584,-163.832l-527.288,-264.73c-3.82,-1.918 -6.201,-5.857 -6.124,-10.131l5.401,-297.706c0.074,-4.09 2.39,-7.808 6.027,-9.679l117.24,-60.301l-41.269,-36.152l-1.428,-0.012c-4.791,-0.039 -8.849,-3.104 -10.375,-7.367l-585.882,-331.684l0.692,243.657c0.005,1.643 -0.348,3.204 -0.984,4.609c-0.728,2.23 -2.163,4.239 -4.21,5.666l-75.399,52.531c-0.883,1.58 -2.153,2.946 -3.729,3.951c-1.54,0.981 -3.269,1.551 -5.031,1.7c-2.095,0.763 -4.393,0.886 -6.594,0.315c-2.82,-0.732 -5.226,-2.538 -6.719,-5.009l-282.833,-136.071c-3.795,-1.826 -6.231,-5.64 -6.293,-9.85l-1.082,-74.003l-311.606,-156.7l-126.494,59.454l533.402,286.084c3.571,1.915 5.816,5.623 5.859,9.675l3.511,333.756c0.04,3.846 -1.911,7.44 -5.159,9.5l-916.998,581.587c-0.573,1.434 -1.444,2.747 -2.572,3.845c-2.113,2.054 -4.955,3.186 -7.901,3.144l-1.47,-0.021l-3.012,1.035c0,0 0.35,0.043 0.978,-0.011l-2.654,0.599l0.555,-0.014l-1.928,0.087l-2.986,-0.541Zm-858.143,-1069.014l30.61,15.844c3.661,1.895 5.972,5.661 6.003,9.783c0.031,4.122 -2.222,7.923 -5.854,9.873l-0.413,0.222c0.188,21.503 0.659,75.357 1.224,141.058l835.629,499.602l882.585,-534.82l-1078.209,-578.284l-671.575,436.722Zm1362.903,-762.066l-505.644,202.372l0,184.772l364.66,195.581l145.192,-68.242l-4.207,-514.483Zm358.869,138.321l-325.529,-137.613l4.192,512.638l295.633,148.668l-7.152,-489.395c-0.054,-3.714 1.75,-7.209 4.81,-9.315c2.091,-1.439 4.578,-2.1 7.045,-1.934l21.001,-23.049Zm-1724.62,677.295l-602.006,323.303l1.012,189.102l263.869,186.907l341.224,-198.165l-4.099,-501.147Zm3827.274,610.005l0,-60.909l-151.969,127.767l1.632,275.985l78.837,-63.773l0,-220.267c0,-2.768 1.012,-5.299 2.686,-7.245c0.617,-2.529 2.12,-4.852 4.42,-6.463l64.394,-45.096Zm-1858.332,1487.791l156.261,-68.031l81.817,-145.875l-774.855,-628.712l-7.275,411.013l544.051,431.604Zm-3853.389,-1013.409l6.389,325.176l1236.702,904.578l-2.87,-320.58l-1240.221,-909.174Zm873.908,1071.27l-336.625,-222.79l-38.897,-7.584l350.005,224.788l25.517,5.586Zm-1014.806,-594.216l178.69,83.758c0.734,0.344 1.428,0.767 2.069,1.262l369.826,285.181l-0.575,-37.969c-0.083,-5.498 3.842,-10.124 9.074,-11.093c2.421,-3.581 6.826,-5.564 11.336,-4.685l118.472,23.1c1.43,0.279 2.791,0.836 4.006,1.64l412.159,272.781l1.328,0.291c5.1,1.117 8.735,5.633 8.735,10.854l0,0.825c0.015,0.249 0.022,0.499 0.02,0.75l-0.02,2.953l0,50.888c-0,3.007 -1.194,5.735 -3.135,7.735l253.279,92.031l-1232.149,-901.248l-133.115,120.946Zm5357.355,-1182.52l-619.671,-516.445l-1.999,247.177l53.579,46.939c3.611,0.372 6.967,2.504 8.751,5.973l1.586,3.083l384.452,336.804c2.421,2.121 3.803,5.187 3.789,8.405l-1.201,281.794l182.601,158.608l397.332,174.434l417.832,-334.257l-315.159,-149.683c-0.742,-0.353 -1.428,-0.777 -2.051,-1.26l-52.743,36.936l0,219.602c0,2.577 -0.877,4.949 -2.349,6.834c-0.54,2.33 -1.832,4.504 -3.835,6.124l-104.667,84.667c-0.674,0.545 -1.392,0.998 -2.139,1.362c-0.941,2.01 -2.478,3.727 -4.46,4.884c-3.431,2.004 -7.671,2.023 -11.12,0.051l-383.446,-219.275c-3.46,-1.979 -5.595,-5.659 -5.595,-9.645l-0,-319.725c-1.954,-1.811 -3.212,-4.286 -3.497,-6.985c-0.363,-3.448 0.904,-6.867 3.425,-9.246l60.584,-57.154Zm-652.814,-540.161l-588.375,-334.227l0.72,253.579l585.626,331.559l2.029,-250.911Zm-699.458,-383.423l104.194,-104.71l-237.482,-112.369l-109.524,120.203l242.813,96.875Zm81.206,570.895l-1.566,-551.792c-0.008,-2.9 1.118,-5.689 3.138,-7.77l38.756,-39.932l-1.744,-44.73l-93.87,94.335l7.049,583.497l48.238,-33.607Zm-2696.289,295.865l-103.015,-71.781l-1146.642,537.525l-0.001,242.025l1196.756,-572.278c3.636,-1.738 7.927,-1.372 11.216,0.957l42.579,30.16l-0.891,-166.607Zm1399.129,2556.282l316.681,-210.549l-152.523,-27.67l-285.079,183.812l120.922,54.406Zm89.424,-2226.674l-818.452,-489.332c1.088,127.048 2.372,280.48 2.711,335.057l812.402,474.142c0.947,-70.824 3.159,-243.028 3.338,-319.867Zm291.155,2088.471l-7.329,7.275c0.864,-0.266 1.691,-0.636 2.463,-1.1l1.783,-1.333c0.552,-0.506 1.055,-1.071 1.502,-1.69c0.701,-0.972 1.23,-2.037 1.582,-3.151Zm0.448,-4.567l-9.828,12.266l0.293,-0.036l9.478,-9.348c0.144,-0.95 0.164,-1.919 0.058,-2.881Zm-7.32,12.241c-0.392,0.134 -0.792,0.246 -1.198,0.335l-2.289,2.272l3.487,-2.607Zm-2.95,0.577l-0.522,0.652l0.67,-0.661l-0.148,0.01Zm591.042,-3358.601l8.095,553.933l245.718,118.214l-6.93,-573.649l-246.884,-98.499Zm497.984,2464.565l43.666,-77.853c1.216,-2.168 3.124,-3.866 5.419,-4.822l923.022,-384.4l-705.729,-604.682l-1041.881,442.52l775.503,629.237Zm-1604.702,1087.138l61.047,-41.456c3.923,-2.664 9.104,-2.545 12.9,0.297l58.035,43.437l-0.318,-34.84l-130.019,-58.499l-1.645,91.061Zm-2058.786,-910.751l383.703,235.155l3.554,-86.913l-388.793,-249.699l1.536,101.458Zm5081.899,-1352.902l-337.147,-205.036l-0,286.3l338.774,193.729l-1.627,-274.994Zm-4249.937,1643.024l1168.154,-556.904l-2.827,-368.03l-1168.245,599.072l2.918,325.862Zm3923.464,-1880.582l341.983,207.977l157.911,-132.763l-353.29,-213.518l-146.604,138.303Zm-2531.302,2505.7c73.003,-47.538 277.555,-180.918 324.912,-213.764l1.965,-1.377l-0.038,-0.583c-0.662,-10.143 -1.522,-26.72 -2.239,-41.275l-324.974,216.063l0.374,40.937Zm-1807.326,-673.542l79.301,-42.562l0.174,-25.49l-76.012,-16.641l-3.463,84.693Zm1849.899,-2718.825l-0,-169.231l-134.662,-89.33l1.024,186.886l133.639,71.675Zm940.891,564.229l-881.125,533.934c-0.177,75.258 -2.295,241.633 -3.276,315.274l887.413,-562.823l-3.013,-286.385Zm-1222.788,1247.03l-1230.524,-871.619l-1179.407,563.982l1238.846,908.165l1171.085,-600.529Zm-2463.213,-548.911l-582.09,518.368l442.453,211.682l146.64,-133.235l-5.874,-298.843c-0.723,-1.474 -1.129,-3.132 -1.129,-4.885l0.002,-52.45c-0.001,-0.149 -0.001,-0.297 -0,-0.445l-0.001,-240.193Zm5046.403,-42.7l1.042,-244.525l-488.993,-256.177l-4.598,253.413l492.549,247.289Zm-83.175,-326.276l-287.326,-251.701l-97.449,50.122l384.775,201.579Zm-2386.118,-1152.906l-861.234,546.062l171.294,88.664l690.955,-449.325l-1.016,-185.402Z" style="fill:#2b232b;stroke:#000;stroke-width:16.67px;"/><path d="M6856.208,2369.203c-1.102,0.009 -3.664,-0.255 -6.449,-2.534l6.449,2.534Z" style="fill:#2b232b;stroke:#000;stroke-width:16.67px;"/><path d="M4393.564,2403.691l2.655,-0.6c-1.118,0.392 -2.026,0.545 -2.655,0.6Z" style="fill:#2b232b;stroke:#000;stroke-width:16.67px;"/><path d="M4386.551,2403.823c-0.447,-0.043 -1.033,-0.133 -1.736,-0.315l1.736,0.315Z" style="fill:#2b232b;stroke:#000;stroke-width:16.67px;"/></g></g><g id="LINES"><g><path d="M5494.501,3486.154l-544.051,-431.604l7.275,-411.013l774.855,628.712l-81.817,145.875l-156.261,68.031Z"/><path d="M5749.125,3242.749l-775.503,-629.237l1041.881,-442.52l705.729,604.682l-923.022,384.4c-2.295,0.956 -4.203,2.654 -5.419,4.822l-43.666,77.853Z"/><path d="M2502.434,3660.833l3.463,-84.693l76.012,16.641l-0.174,25.49l-79.301,42.562Z"/><path d="M7488.036,3105.274l-4.364,-525.551l103.134,79.508l-1.643,509.621l-97.127,-63.578Z"/><path d="M7315.802,3196.601l-4.73,-360.797c0.05,-0.311 0.088,-0.626 0.111,-0.944c0.279,-3.72 -1.328,-7.332 -4.278,-9.616l-115.805,-89.653l259.202,-160.236l4.401,530.032l-138.901,91.213Z"/><path d="M6564.616,3302.828l5.472,296.157l-292.426,148.707l-1.983,-312.364l288.937,-132.5Z"/><path d="M6259.212,3406.208l-143.175,-70.752l300.541,-144.958l128.777,84.491l-286.143,131.219Z"/><path d="M6091.96,3360.74l150.383,74.314l2.017,317.836l-49.731,-31.972l-0.751,-257.859c-0.013,-4.396 -2.616,-8.371 -6.641,-10.14l-95.245,-41.858l-0.033,-50.321Z"/><path d="M4940.494,4062.737l137.673,78.658l0,315.063c-15.629,-7.958 -35.032,-17.883 -45.955,-23.653c-0.855,-51.518 -6.995,-294.116 -6.995,-294.116l-1.104,1.132c0.874,-5.336 -2.222,-10.529 -7.336,-12.297l-74.266,-25.663l-2.017,-39.125Z"/><path d="M5094.64,4112.417l-139.764,-79.852l321.016,-198.294l117.252,99.592l-298.504,178.554Z"/><path d="M5411.881,4271.837l-74.899,46.088c-4.109,0.108 -7.658,2.444 -9.49,5.839l-215.993,132.907l-0,-315.497l297.944,-178.219l2.437,308.882Z"/><path d="M7284.744,3370.364l-1224.118,700.773l-1.528,-214.923c-0.028,-3.977 -2.181,-7.636 -5.643,-9.594c-3.463,-1.957 -7.708,-1.914 -11.13,0.113l-597.67,353.992l-2.099,-266.024c-0.045,-5.672 -4.331,-10.317 -9.825,-10.95l-35.322,-30.002l744.069,-424.532l19.11,8.398l0.727,249.628c-2.206,4.323 -1.319,9.552 2.059,12.912c1.499,2.115 3.72,3.683 6.302,4.345l79.701,51.24c5.162,3.319 12.036,1.824 15.355,-3.337l0.708,-1.101l332.161,-168.913c3.793,-1.929 6.151,-5.855 6.073,-10.109l-6.23,-337.189c-0.068,-3.671 -1.944,-7.071 -5.014,-9.085l-19.854,-13.026l705.466,-393.906l6.703,511.289Z"/><path d="M4309.76,4334.376l-0.374,-40.937l324.974,-216.063c0.717,14.555 1.577,31.132 2.239,41.275l0.038,0.583l-1.965,1.377c-47.356,32.846 -251.908,166.227 -324.912,213.764Z"/><path d="M4144.423,4329.887l1.645,-91.061l130.019,58.499l0.318,34.84l-58.035,-43.437c-3.796,-2.841 -8.977,-2.96 -12.9,-0.297l-61.047,41.456Z"/><path d="M4289.343,4266.737l-120.922,-54.406l285.079,-183.812l152.523,27.67l-316.681,210.549Z"/><path d="M5012.45,4458.338c-2.25,0 -4.444,-0.683 -6.294,-1.954c0.628,0.435 1.765,1.161 3.385,2.068c12.588,7.045 77.768,40.031 77.768,40.031l3.329,1.684c1.14,0.887 2.432,1.534 3.796,1.921l0.938,0.475c3.444,1.743 7.547,1.573 10.835,-0.449c2.257,-1.387 3.908,-3.51 4.723,-5.953l215.432,-132.562l0.806,142.29l-1270.501,738.645l0,-560.38l908.035,-539.354l27.565,9.525c1.352,53.746 5.953,237.774 6.63,279.91c0.074,4.581 0.075,7.9 0.075,7.9c0,0.411 0.023,0.817 0.066,1.216l0.014,0.604l0.082,0.08c0.332,1.92 1.157,3.672 2.34,5.12l-1.494,-0.978l0.861,2.001l10.228,6.769l-7.855,-3.253l1.311,1.323l7.926,3.324Z"/><path d="M3706.964,4872.787l3.848,-353.54l312.521,165.455l0,560.603l-314.748,-177.962l-1.622,-194.556Z"/><path d="M3551.018,4768.692c-0.244,-59.262 -1.628,-386.605 -2.761,-485.562l257.232,137.013l-128.187,61.303c-3.786,1.811 -6.229,5.601 -6.315,9.797c-0.086,4.196 2.201,8.083 5.91,10.047l0.772,0.409l-3.735,343.082l-122.916,-76.089Z"/><path d="M3395.372,4365.1l119.161,-79.108l3.131,483.148l-117.212,78.474l-5.08,-482.513Z"/><path d="M3042.262,4117.184l69,-85.333l-0.171,46.902l-68.829,38.431Z"/><path d="M2820.164,4412.802l154.796,91.452c3.307,1.954 7.39,2.061 10.795,0.283l48.271,-25.207c3.661,-1.912 5.96,-5.697 5.968,-9.828l0.562,-293.817l321.489,190.103l5.1,484.369l-549.305,-304.326l2.325,-133.029Z"/><path d="M2615.303,3974.501l348.323,202.432l0.44,282.169l-349.056,-206.219l0.293,-278.383Z"/><path d="M3103.726,3988.157l-127.425,157.588l-349.729,-203.249l137.327,-126.619l339.827,172.28Z"/><path d="M1500.214,2949.799l133.115,-120.946l1232.149,901.248l-253.279,-92.031c1.94,-2 3.135,-4.728 3.135,-7.735l0,-50.888l0.02,-2.953c0.002,-0.251 -0.005,-0.501 -0.02,-0.75l0,-0.825c0,-5.221 -3.635,-9.738 -8.735,-10.854l-1.328,-0.291l-412.159,-272.781c-1.215,-0.804 -2.576,-1.361 -4.006,-1.64l-118.472,-23.1c-4.51,-0.879 -8.915,1.104 -11.336,4.685c-5.232,0.969 -9.157,5.595 -9.074,11.093l0.575,37.969l-369.826,-285.181c-0.642,-0.495 -1.336,-0.918 -2.069,-1.262l-178.69,-83.758Z"/><path d="M2085.637,3419.136l-1.536,-101.458l388.793,249.699l-3.554,86.913l-383.703,-235.155Z"/><path d="M1596.858,3334.497l1002.283,587.951l-13.559,12.502c-2.279,2.101 -3.576,5.058 -3.579,8.157l-0.214,202.949l-686.03,-397.455c-3.413,-1.978 -7.619,-1.997 -11.051,-0.051c-3.431,1.946 -5.574,5.565 -5.629,9.51l-3.449,245.887l-284.794,-171.195l6.021,-498.255Z"/><path d="M449.846,2642.417l769.387,465.854l4.832,520.797l-768.881,-437.756l-5.338,-548.895Z"/><path d="M1252.568,3108.353l109.714,-84.68l2.668,524.691l-107.583,77.252l-4.799,-517.264Z"/><path d="M1398.299,3551.169l-2.708,-532.402l305.294,175.354l-138.613,102.128c-3.008,2.216 -4.7,5.795 -4.505,9.525c0.195,3.731 2.252,7.114 5.474,9.004l0.515,0.302l-4.153,343.625l-161.305,-107.537Z"/><path d="M4378.766,2040.062c-0.179,76.839 -2.391,249.043 -3.338,319.867l-812.402,-474.142c-0.339,-54.577 -1.624,-208.009 -2.711,-335.057l818.452,489.332Z"/><path d="M5293.224,1506.238l3.013,286.385l-887.413,562.823c0.98,-73.642 3.099,-240.017 3.276,-315.274l881.125,-533.934Z"/><path d="M7620.136,2660.511l698.965,-419.326l0.828,531.101l-701.448,401.259l1.655,-513.034Z"/><path d="M7352.833,1998.364l-64.394,45.096c-2.3,1.61 -3.803,3.934 -4.42,6.463c-1.674,1.945 -2.686,4.477 -2.686,7.245l0,220.267l-78.837,63.773l-1.632,-275.985l151.969,-127.767l0,60.909Z"/><path d="M6841.063,1828.676l146.604,-138.303l353.29,213.518l-157.911,132.763l-341.983,-207.977Z"/><path d="M7167.536,2066.234l1.627,274.994l-338.774,-193.729l0,-286.3l337.147,205.036Z"/><path d="M6653.625,2161.657l-492.549,-247.289l4.598,-253.413l488.993,256.177l-1.042,244.525Z"/><path d="M6570.45,1835.381l-384.775,-201.579l97.449,-50.122l287.326,251.701Z"/><path d="M6857.569,1767.279l-60.584,57.154c-2.522,2.379 -3.789,5.798 -3.425,9.246c0.284,2.699 1.542,5.174 3.497,6.985l0,319.725c0,3.986 2.135,7.667 5.595,9.645l383.446,219.275c3.449,1.972 7.689,1.953 11.12,-0.051c1.981,-1.157 3.519,-2.875 4.46,-4.884c0.747,-0.363 1.466,-0.817 2.139,-1.362l104.667,-84.667c2.003,-1.621 3.296,-3.794 3.835,-6.124c1.472,-1.885 2.349,-4.257 2.349,-6.834l0,-219.602l52.743,-36.936c0.624,0.484 1.309,0.908 2.051,1.26l315.159,149.683l-417.832,334.257l-397.332,-174.434l-182.601,-158.608l1.201,-281.794c0.014,-3.218 -1.369,-6.284 -3.789,-8.405l-384.452,-336.804l-1.586,-3.083c-1.784,-3.469 -5.141,-5.601 -8.751,-5.973l-53.579,-46.939l1.999,-247.177l619.671,516.445Z"/><path d="M6204.755,1227.118l-2.029,250.911l-585.626,-331.559l-0.72,-253.579l588.375,334.227Z"/><path d="M5586.502,1414.59l-48.238,33.607l-7.049,-583.497l93.87,-94.335l1.744,44.73l-38.756,39.932c-2.02,2.081 -3.146,4.87 -3.138,7.77l1.566,551.792Z"/><path d="M5505.296,843.695l-242.813,-96.875l109.524,-120.203l237.482,112.369l-104.194,104.71Z"/><path d="M5251.141,778.183l246.884,98.499l6.93,573.649l-245.718,-118.214l-8.095,-553.933Z"/><path d="M5250.18,711.063l-21.001,23.049c-2.467,-0.165 -4.954,0.495 -7.045,1.934c-3.059,2.106 -4.864,5.601 -4.81,9.315l7.152,489.395l-295.633,-148.668l-4.192,-512.638l325.529,137.613Z"/><path d="M4352.333,942.009l-133.639,-71.675l-1.024,-186.886l134.662,89.33l0,169.231Z"/><path d="M4891.311,572.742l4.207,514.483l-145.192,68.242l-364.66,-195.581l0,-184.772l505.644,-202.372Z"/><path d="M3528.408,1334.809l671.575,-436.722l1078.209,578.284l-882.585,534.82l-835.629,-499.602c-0.565,-65.701 -1.036,-119.555 -1.224,-141.058l0.413,-0.222c3.632,-1.95 5.885,-5.751 5.854,-9.873c-0.031,-4.122 -2.342,-7.888 -6.003,-9.783l-30.61,-15.844Z"/><path d="M4184.332,682.475l1.016,185.402l-690.955,449.325l-171.294,-88.664l861.234,-546.062Z"/><path d="M3525.56,1388.358l4.099,501.147l-341.224,198.165l-263.869,-186.907l-1.012,-189.102l602.006,-323.303Z"/><path d="M1607.222,2204.357l0.001,240.193c-0.001,0.148 -0.001,0.296 0,0.445l-0.002,52.45c0,1.753 0.406,3.411 1.129,4.885l5.874,298.843l-146.64,133.235l-442.453,-211.682l582.09,-518.368Z"/><path d="M2890.213,1710.455l0.891,166.607l-42.579,-30.16c-3.288,-2.329 -7.58,-2.696 -11.216,-0.957l-1196.756,572.278l0.001,-242.025l1146.642,-537.525l103.015,71.781Z"/><path d="M4725.287,127.624l3578.916,2083.627l-699.53,419.665l-130.819,-100.851c-3.663,-2.824 -8.692,-3.083 -12.626,-0.651l-314.918,194.679c-3.099,1.916 -5.062,5.229 -5.253,8.867c-0.191,3.638 1.413,7.139 4.294,9.37l114.563,88.69l-718.773,401.337l-116.792,-76.628c-3.262,-2.14 -7.408,-2.413 -10.922,-0.718l-348.532,168.105c-3.844,1.854 -6.287,5.747 -6.284,10.015l0.06,92.449c0.003,4.405 2.608,8.393 6.641,10.165l38.171,16.775l-733.1,418.274l-85.226,-72.39c-3.671,-3.118 -8.934,-3.516 -13.032,-0.984l-361.402,223.24c-3.451,2.132 -5.466,5.974 -5.257,10.025l4.529,87.859c0.233,4.522 3.187,8.451 7.467,9.93l5.976,2.065l-883.905,525.022l-308.037,-163.081l128.063,-61.243c3.782,-1.809 6.224,-5.592 6.315,-9.783c0.091,-4.191 -2.185,-8.077 -5.885,-10.047l-324.076,-172.617c-3.603,-1.919 -7.968,-1.708 -11.369,0.55l-146.443,97.219l-320.709,-189.643l81.293,-45.39c3.503,-1.956 5.68,-5.649 5.694,-9.661l0.413,-113.396c0.015,-4.201 -2.34,-8.051 -6.087,-9.951l-373.497,-189.349c-4.138,-2.098 -9.145,-1.404 -12.556,1.742l-127.893,117.921l-1015.568,-595.745l138.885,-102.328c3.022,-2.227 4.716,-5.829 4.502,-9.576c-0.213,-3.748 -2.304,-7.134 -5.559,-9.004l-363.159,-208.59c-3.899,-2.24 -8.763,-1.908 -12.323,0.839l-135.841,104.845l-770.187,-466.338l4259.78,-2485.308Zm-2673.843,3234.965l1.003,66.218c0.044,2.912 1.204,5.545 3.067,7.498c0.731,2.598 2.406,4.938 4.889,6.46l423.79,259.722c3.36,2.059 7.559,2.185 11.036,0.33c0.714,-0.381 1.376,-0.834 1.978,-1.347l77.908,-41.815c0.781,0.547 1.645,1.001 2.584,1.342l599.909,217.983l354.765,288.783c1.178,0.959 2.54,1.666 4.002,2.078l320.607,90.289l174.436,175.826c3.767,3.797 9.705,4.371 14.13,1.367l165.538,-112.414l74.867,56.035c3.731,2.792 8.808,2.96 12.715,0.42l3.252,-2.115c0,-0 293.699,-190.985 351.751,-231.249c7.896,-5.477 12.306,-9.275 13.071,-10.187l-8.51,3.967l9.39,-5.17l0.821,-1.288l-9.346,5.101l10.682,-8.051l0.443,-1.528l-1.687,1.262c0.843,-1.192 1.439,-2.534 1.761,-3.944l0.38,-0.377l0.013,-1.308l-0.154,0.152c0.057,-0.668 0.053,-1.345 -0.013,-2.022c0,0 -0.381,-3.892 -0.658,-8.128l-0.106,-1.649l385.783,-401.212l615.383,-267.917c2.224,-0.968 4.069,-2.637 5.256,-4.752l141.932,-253.055l1374.632,-572.477c0.959,-0.4 1.858,-0.932 2.669,-1.581l537.768,-430.203c2.99,-2.392 4.538,-6.155 4.096,-9.959c-0.442,-3.804 -2.811,-7.112 -6.27,-8.754l-344.838,-163.778l-0.001,-91.713c2.743,-2.306 4.205,-5.794 3.926,-9.368c-0.278,-3.573 -2.263,-6.793 -5.33,-8.646l-394.311,-238.309c-4.272,-2.582 -9.741,-1.998 -13.372,1.427l-95.089,89.706l-642.701,-535.639c-0.507,-0.423 -1.051,-0.8 -1.626,-1.126l-610.161,-346.603l27.928,-28.775c2.117,-2.181 3.248,-5.134 3.129,-8.171l-3.271,-83.915c2.439,-2.549 3.525,-6.11 2.917,-9.593c-0.621,-3.555 -2.931,-6.588 -6.193,-8.131l-280.495,-132.721c-4.415,-2.089 -9.676,-1.05 -12.965,2.56l-84.566,92.812l-359.718,-152.066c-2.087,-0.882 -4.292,-1.078 -6.364,-0.69c-2.063,-0.428 -4.271,-0.274 -6.374,0.568l-530.603,212.362l-160.879,-106.721c-2.775,-1.841 -6.075,-2.272 -9.055,-1.464c-2.963,-0.869 -6.271,-0.507 -9.083,1.276l-919.336,582.902c-3.36,2.13 -5.325,5.895 -5.151,9.869c0.174,3.975 2.46,7.553 5.993,9.382l232.853,120.528l-598.303,321.314l-112.234,-78.204c-3.256,-2.269 -7.475,-2.629 -11.068,-0.944l-1164.802,546.038c-0.972,0.455 -1.872,1.049 -2.673,1.763l-639.176,569.204c-2.778,2.474 -4.133,6.173 -3.612,9.856c0.521,3.683 2.851,6.86 6.206,8.465l482.722,230.948l0.08,0.038l199.142,93.344l388.895,299.886Z"/><path d="M1641.112,2472.745l1240.221,909.174l2.87,320.58l-1236.702,-904.578l-6.389,-325.176Z"/><path d="M2917.599,3709.258l-2.918,-325.862l1168.245,-599.072l2.827,368.03l-1168.154,556.904Z"/><path d="M4070.436,2753.268l-1171.085,600.529l-1238.846,-908.165l1179.407,-563.982l1230.524,871.619Z"/><path d="M4386.551,2403.823l-1.736,-0.315c0.703,0.182 1.289,0.272 1.736,0.315l2.986,0.541l1.928,-0.087l-0.555,0.014l2.654,-0.599c0.629,-0.055 1.537,-0.207 2.655,-0.6l-2.655,0.6c-0.629,0.055 -0.978,0.011 -0.978,0.011l3.012,-1.035l1.47,0.021c2.947,0.041 5.789,-1.09 7.901,-3.144c1.129,-1.098 2,-2.411 2.572,-3.845l916.998,-581.587c3.248,-2.06 5.2,-5.654 5.159,-9.5l-3.511,-333.756c-0.043,-4.052 -2.288,-7.76 -5.859,-9.675l-533.402,-286.084l126.494,-59.454l311.606,156.7l1.082,74.003c0.062,4.211 2.498,8.025 6.293,9.85l282.833,136.071c1.493,2.471 3.899,4.277 6.719,5.009c2.201,0.571 4.499,0.448 6.594,-0.315c1.762,-0.149 3.491,-0.719 5.031,-1.7c1.577,-1.004 2.846,-2.37 3.729,-3.951l75.399,-52.531c2.047,-1.426 3.482,-3.435 4.21,-5.666c0.636,-1.405 0.988,-2.966 0.984,-4.609l-0.692,-243.657l585.882,331.684c1.525,4.263 5.584,7.328 10.375,7.367l1.428,0.012l41.269,36.152l-117.24,60.301c-3.638,1.871 -5.953,5.589 -6.027,9.679l-5.401,297.706c-0.078,4.274 2.304,8.213 6.124,10.131l527.288,264.73l188.584,163.832l7.287,2.723c0,0 -0.205,0.033 -0.569,0.036l-6.449,-2.534c2.785,2.279 5.347,2.543 6.449,2.534l1.181,0.464c-1.538,0 -3.059,-0.319 -4.467,-0.938l384.48,168.829l-60.367,48.293l-421.328,175.465l-728.979,-624.603c-3.205,-2.746 -7.689,-3.439 -11.573,-1.789l-1080.06,458.736c-3.09,1.312 -5.278,3.859 -6.233,6.821c-2.315,1.994 -3.802,4.929 -3.86,8.224l-8.222,464.556c-0.109,6.136 4.777,11.197 10.913,11.306l7.119,0.126l525.059,416.538l-421.709,183.598c-1.344,0.585 -2.558,1.43 -3.574,2.486l-367.253,381.941c-0.623,-12.849 -1.075,-22.792 -1.075,-22.792l-0.447,-9.812c-0.182,-4.001 -2.503,-7.594 -6.075,-9.405c-3.572,-1.811 -7.842,-1.56 -11.177,0.657l-2.508,1.667l-195.238,-35.419c-2.774,-0.503 -5.635,0.067 -8.004,1.594l-326.825,210.729c-3.423,2.207 -5.364,6.109 -5.059,10.17c0.158,2.1 0.903,4.068 2.099,5.71l-2.357,130.449l-68.585,46.575l-165.561,-166.881c-1.35,-1.361 -3.03,-2.35 -4.876,-2.87l-321.805,-90.627l-354.104,-288.245c-0.964,-0.784 -2.052,-1.402 -3.22,-1.826l-278.316,-101.129l1198.662,-571.449c3.895,-1.857 6.362,-5.8 6.329,-10.115l-3.107,-404.574c0.089,-0.832 0.084,-1.678 -0.019,-2.521l-0.031,-4.011c1.86,-4.658 0.372,-10.153 -3.902,-13.18l-893.797,-633.105l331.185,-192.334c86.491,50.609 687.293,402.129 810.157,473.138c14.097,8.148 22.316,12.764 23.265,13.196l4.601,0.998c0,0 -0.353,0.036 -0.994,-0.026Z"/><path d="M1224.423,3667.63l-796.834,-453.67c-3.437,-1.957 -5.575,-5.593 -5.613,-9.548l-5.753,-591.583c-0.03,-3.047 1.17,-5.819 3.136,-7.845c0.733,-2.727 2.499,-5.177 5.131,-6.712l4292.389,-2504.333c2.639,-1.54 5.651,-1.869 8.392,-1.157c2.74,-0.714 5.752,-0.388 8.393,1.15l3611.333,2102.5c3.403,1.981 5.362,5.492 5.513,9.154c1.184,1.763 1.876,3.884 1.879,6.168l0.894,573.395c0.006,3.992 -2.129,7.68 -5.594,9.662l-746.036,426.766c-3.444,1.97 -7.678,1.954 -11.107,-0.042c-3.429,-1.996 -5.534,-5.67 -5.521,-9.638l0.011,-3.286l-113.576,-74.345l-155.139,101.876l1.901,144.976c0.046,3.482 -1.516,6.612 -3.997,8.682c-0.947,1.87 -2.433,3.493 -4.388,4.612l-1254.889,718.389c-4.227,2.42 -9.375,1.756 -12.844,-1.283l-3.413,0.024c-6.136,0.044 -11.146,-4.895 -11.19,-11.032l-1.461,-205.388l-581.082,344.167l0.375,47.471c0.048,6.136 -4.887,11.15 -11.023,11.198l-1.287,0.01l-73.442,45.191l0.993,175.41c0.023,3.98 -2.086,7.668 -5.526,9.669l-1306.67,759.673c-1.381,0.803 -2.862,1.274 -4.354,1.44c-3.245,1.739 -7.284,1.828 -10.726,-0.118l-352.294,-199.191c-3.458,-1.955 -5.609,-5.607 -5.642,-9.58l-1.639,-196.607l-138.979,-86.033l-149.897,100.356c-3.391,2.27 -7.753,2.499 -11.363,0.596c-3.61,-1.903 -5.886,-5.632 -5.929,-9.712l-0.006,-0.572l-577.545,-319.972c-3.595,-1.992 -5.797,-5.804 -5.725,-9.913l2.889,-165.295l-200.043,-118.184c-3.387,-2.001 -5.464,-5.644 -5.459,-9.578l0.085,-80.989l-669.871,-388.093l-3.459,246.599c-0.056,3.976 -2.232,7.62 -5.708,9.553c-3.475,1.934 -7.719,1.863 -11.127,-0.186l-328.846,-197.676c-3.383,-2.034 -5.434,-5.71 -5.386,-9.657l1.772,-146.65l-179.438,-119.626l-137.661,98.85c-3.37,2.42 -7.807,2.761 -11.507,0.884c-3.7,-1.877 -6.046,-5.658 -6.085,-9.806l-0.01,-1.12Zm-774.577,-1025.212l5.338,548.895l768.881,437.756l-4.832,-520.797l-769.387,-465.854Zm4275.441,-2514.793l-4259.78,2485.308l770.187,466.338l135.841,-104.845c3.56,-2.747 8.424,-3.078 12.323,-0.839l363.159,208.59c3.255,1.87 5.346,5.256 5.559,9.004c0.213,3.748 -1.48,7.35 -4.502,9.576l-138.885,102.328l1015.568,595.745l127.893,-117.921c3.411,-3.145 8.418,-3.84 12.556,-1.742l373.497,189.349c3.747,1.9 6.102,5.75 6.087,9.951l-0.413,113.396c-0.015,4.012 -2.191,7.705 -5.694,9.661l-81.293,45.39l320.709,189.643l146.443,-97.219c3.401,-2.258 7.766,-2.469 11.369,-0.55l324.076,172.617c3.7,1.971 5.976,5.856 5.885,10.047c-0.091,4.191 -2.533,7.974 -6.315,9.783l-128.063,61.243l308.037,163.081l883.905,-525.022l-5.976,-2.065c-4.28,-1.479 -7.234,-5.407 -7.467,-9.93l-4.529,-87.859c-0.209,-4.051 1.806,-7.893 5.257,-10.025l361.402,-223.24c4.098,-2.532 9.361,-2.134 13.032,0.984l85.226,72.39l733.1,-418.274l-38.171,-16.775c-4.033,-1.772 -6.638,-5.76 -6.641,-10.165l-0.06,-92.449c-0.003,-4.268 2.44,-8.161 6.284,-10.015l348.532,-168.105c3.514,-1.695 7.66,-1.423 10.922,0.718l116.792,76.628l718.773,-401.337l-114.563,-88.69c-2.881,-2.23 -4.485,-5.731 -4.294,-9.37c0.191,-3.638 2.154,-6.952 5.253,-8.867l314.918,-194.679c3.934,-2.432 8.963,-2.173 12.626,0.651l130.819,100.851l699.53,-419.665l-3578.916,-2083.627Zm2894.85,2532.887l-1.655,513.034l701.448,-401.259l-0.828,-531.101l-698.965,419.326Zm-304.334,536.091l138.901,-91.213l-4.401,-530.032l-259.202,160.236l115.805,89.653c2.95,2.284 4.557,5.896 4.278,9.616c-0.024,0.318 -0.061,0.632 -0.111,0.944l4.73,360.797Zm172.235,-91.327l97.127,63.578l1.643,-509.621l-103.134,-79.508l4.364,525.551Zm-203.293,265.09l-6.703,-511.289l-705.466,393.906l19.854,13.026c3.07,2.014 4.946,5.414 5.014,9.085l6.23,337.189c0.079,4.255 -2.28,8.18 -6.073,10.109l-332.161,168.913l-0.708,1.101c-3.319,5.162 -10.193,6.656 -15.355,3.337l-79.701,-51.24c-2.582,-0.663 -4.803,-2.23 -6.302,-4.345c-3.378,-3.359 -4.265,-8.589 -2.059,-12.912l-0.727,-249.628l-19.11,-8.398l-744.069,424.532l35.322,30.002c5.494,0.633 9.78,5.278 9.825,10.95l2.099,266.024l597.67,-353.992c3.422,-2.027 7.667,-2.07 11.13,-0.113c3.463,1.957 5.615,5.616 5.643,9.594l1.528,214.923l1224.118,-700.773Zm-1872.863,901.472l-2.437,-308.882l-297.944,178.219l0,315.497l215.993,-132.907c1.832,-3.395 5.38,-5.732 9.49,-5.839l74.899,-46.088Zm-1355.214,972.695l1270.501,-738.645l-0.806,-142.29l-215.432,132.562c-0.814,2.443 -2.466,4.566 -4.723,5.953c-3.288,2.022 -7.391,2.192 -10.835,0.449l-0.938,-0.475c-1.364,-0.387 -2.657,-1.033 -3.796,-1.921l-3.329,-1.684c0,0 -65.18,-32.986 -77.768,-40.031c-1.62,-0.907 -2.756,-1.632 -3.385,-2.068c1.85,1.271 4.044,1.954 6.294,1.954c2.351,0 4.571,-0.739 6.402,-2.029l-3.073,-5.998l-3.329,8.028l-7.926,-3.324l-1.311,-1.323l7.855,3.253l-10.228,-6.769l-0.861,-2.001l1.494,0.978c-1.183,-1.448 -2.008,-3.199 -2.34,-5.12l-0.082,-0.08l-0.014,-0.604c-0.044,-0.399 -0.066,-0.805 -0.066,-1.216c-0,-0 -0.002,-3.318 -0.075,-7.9c-0.678,-42.136 -5.279,-226.163 -6.63,-279.91l-27.565,-9.525l-908.035,539.354l0,560.38Zm-349.703,-371.745l1.622,194.556l314.748,177.962l0,-560.603l-312.521,-165.455l-3.848,353.54Zm-311.592,-507.686l5.08,482.513l117.212,-78.474l-3.131,-483.148l-119.161,79.108Zm155.645,403.592l122.916,76.089l3.735,-343.082l-0.772,-0.409c-3.709,-1.964 -5.996,-5.85 -5.91,-10.047c0.086,-4.196 2.529,-7.986 6.315,-9.797l128.187,-61.303l-257.232,-137.013c1.134,98.957 2.517,426.299 2.761,485.562Zm-730.854,-355.89l-2.325,133.029l549.305,304.326l-5.1,-484.369l-321.489,-190.103l-0.562,293.817c-0.008,4.131 -2.307,7.916 -5.968,9.828l-48.271,25.207c-3.405,1.778 -7.487,1.671 -10.795,-0.283l-154.796,-91.452Zm-204.861,-438.301l-0.293,278.383l349.056,206.219l-0.44,-282.169l-348.323,-202.432Zm-1018.445,-640.003l-6.021,498.255l284.794,171.195l3.449,-245.887c0.055,-3.944 2.198,-7.564 5.629,-9.51c3.431,-1.946 7.637,-1.926 11.051,0.051l686.03,397.455l0.214,-202.949c0.003,-3.099 1.301,-6.056 3.579,-8.157l13.559,-12.502l-1002.283,-587.951Zm-344.289,-226.144l4.799,517.264l107.583,-77.252l-2.668,-524.691l-109.714,84.68Zm145.731,442.815l161.305,107.537l4.153,-343.625l-0.515,-0.302c-3.222,-1.89 -5.279,-5.273 -5.474,-9.004c-0.195,-3.731 1.498,-7.31 4.505,-9.525l138.613,-102.128l-305.294,-175.354l2.708,532.402Zm3616.006,897.211l-2.33,1.293l0.137,-0.057l-0.359,0.185c0.203,0.018 0.835,0.056 1.717,-0.065l0.224,-0.229l0.499,-0.753l0.383,-0.159l0.021,-0.05c-0.066,-0.037 -0.13,-0.074 -0.193,-0.11c-0.033,-0.019 -0.066,-0.038 -0.098,-0.057Zm4.281,2.347l2.571,3.31l0.178,-0.137c0.303,-0.403 0.58,-0.829 0.827,-1.275c-1.251,-0.661 -2.446,-1.296 -3.577,-1.899Zm-4.222,-301.653l0.018,0.728l0.834,-0.855c-0.281,0.053 -0.565,0.096 -0.852,0.127Zm17.641,296.169l0.018,0.009c0.127,-0.593 0.206,-1.203 0.234,-1.828l-0.252,1.819Zm-19.893,4.374l2.291,-1.18l-0.211,0.318l-2.081,0.862Zm-1969.85,-332.433l68.829,-38.431l0.171,-46.902l-69,85.333Zm61.463,-129.027l-339.827,-172.28l-137.327,126.619l349.729,203.249l127.425,-157.588Zm1990.915,124.26l298.504,-178.554l-117.252,-99.592l-321.016,198.294l139.764,79.852Zm-154.147,-49.679l2.017,39.125l74.266,25.663c5.114,1.767 8.21,6.961 7.336,12.297l1.104,-1.132c0,0 6.14,242.597 6.995,294.116c10.923,5.769 30.325,15.695 45.955,23.653l0,-315.063l-137.673,-78.658Zm1318.718,-656.529l286.143,-131.219l-128.777,-84.491l-300.541,144.958l143.175,70.752Zm-167.252,-45.469l0.033,50.321l95.245,41.858c4.024,1.769 6.628,5.744 6.641,10.14l0.751,257.859l49.731,31.972l-2.017,-317.836l-150.383,-74.314Zm-3094.558,1100.111l9.284,-4.848l0.565,-295.52l-10.297,12.735l0.448,287.633Zm2022.982,-15.493l0.106,-0.054c0.09,-0.159 0.171,-0.323 0.244,-0.491l-0.08,0.044l-0.051,0.194l-0.219,0.307Zm1544.232,-1142.529l-288.937,132.5l1.983,312.364l292.426,-148.707l-5.472,-296.157Zm-4513.173,59.762l-388.895,-299.886l-199.142,-93.344l-0.08,-0.038l-482.722,-230.948c-3.355,-1.605 -5.685,-4.783 -6.206,-8.465c-0.521,-3.683 0.834,-7.382 3.612,-9.856l639.176,-569.204c0.801,-0.714 1.702,-1.307 2.673,-1.763l1164.802,-546.038c3.593,-1.684 7.812,-1.325 11.068,0.944l112.234,78.204l598.303,-321.314l-232.853,-120.528c-3.533,-1.829 -5.819,-5.407 -5.993,-9.382c-0.174,-3.975 1.791,-7.739 5.151,-9.869l919.336,-582.902c2.812,-1.783 6.12,-2.146 9.083,-1.276c2.98,-0.808 6.28,-0.377 9.055,1.464l160.879,106.721l530.603,-212.362c2.103,-0.842 4.31,-0.995 6.374,-0.568c2.072,-0.389 4.277,-0.193 6.364,0.69l359.718,152.066l84.566,-92.812c3.289,-3.61 8.551,-4.649 12.965,-2.56l280.495,132.721c3.263,1.544 5.572,4.576 6.193,8.131c0.609,3.484 -0.478,7.044 -2.917,9.593l3.271,83.915c0.118,3.037 -1.013,5.99 -3.129,8.171l-27.928,28.775l610.161,346.603c0.574,0.326 1.118,0.703 1.626,1.126l642.701,535.639l95.089,-89.706c3.631,-3.425 9.1,-4.009 13.372,-1.427l394.311,238.309c3.067,1.854 5.052,5.073 5.33,8.646c0.278,3.573 -1.183,7.061 -3.926,9.368l0.001,91.713l344.838,163.778c3.459,1.643 5.828,4.951 6.27,8.754c0.442,3.804 -1.106,7.567 -4.096,9.959l-537.768,430.203c-0.811,0.649 -1.71,1.181 -2.669,1.581l-1374.632,572.477l-141.932,253.055c-1.186,2.115 -3.032,3.784 -5.256,4.752l-615.383,267.917l-385.783,401.212c0.036,0.567 0.071,1.117 0.106,1.649c0.277,4.236 0.658,8.128 0.658,8.128c0.066,0.677 0.07,1.354 0.013,2.022l0.154,-0.152l-0.013,1.308l-0.38,0.377c-0.322,1.41 -0.918,2.752 -1.761,3.944l1.687,-1.262l-0.443,1.528l-10.682,8.051l9.346,-5.101l-0.821,1.288l-9.39,5.17l8.51,-3.967c-0.765,0.912 -5.175,4.71 -13.071,10.187c-58.051,40.264 -351.751,231.249 -351.751,231.249l-3.252,2.115c-3.907,2.54 -8.984,2.373 -12.715,-0.42l-74.867,-56.035l-165.538,112.414c-4.425,3.005 -10.363,2.431 -14.13,-1.367l-174.436,-175.826l-320.607,-90.289c-1.462,-0.412 -2.824,-1.119 -4.002,-2.078l-354.765,-288.783l-599.909,-217.983c-0.938,-0.341 -1.803,-0.795 -2.584,-1.342l-77.908,41.815c-0.602,0.513 -1.264,0.966 -1.978,1.347c-3.477,1.855 -7.676,1.729 -11.036,-0.33l-423.79,-259.722c-2.483,-1.522 -4.157,-3.862 -4.889,-6.46c-1.863,-1.953 -3.023,-4.586 -3.067,-7.498l-1.003,-66.218Zm2132.888,-2680.115l-861.234,546.062l171.294,88.664l690.955,-449.325l-1.016,-185.402Zm-655.924,652.334l30.61,15.844c3.661,1.895 5.972,5.661 6.003,9.783c0.031,4.122 -2.222,7.923 -5.854,9.873l-0.413,0.222c0.188,21.503 0.659,75.357 1.224,141.058l835.629,499.602l882.585,-534.82l-1078.209,-578.284l-671.575,436.722Zm-2.848,53.55l-602.006,323.303l1.012,189.102l263.869,186.907l341.224,-198.165l-4.099,-501.147Zm-635.347,322.097l-103.015,-71.781l-1146.642,537.525l-0.001,242.025l1196.756,-572.278c3.636,-1.738 7.927,-1.372 11.216,0.957l42.579,30.16l-0.891,-166.607Zm-1282.991,493.902l-582.09,518.368l442.453,211.682l146.64,-133.235l-5.874,-298.843c-0.723,-1.474 -1.129,-3.132 -1.129,-4.885l0.002,-52.45c-0.001,-0.149 -0.001,-0.297 -0,-0.445l-0.001,-240.193Zm-107.009,745.442l178.69,83.758c0.734,0.344 1.428,0.767 2.069,1.262l369.826,285.181l-0.575,-37.969c-0.083,-5.498 3.842,-10.124 9.074,-11.093c2.421,-3.581 6.826,-5.564 11.336,-4.685l118.472,23.1c1.43,0.279 2.791,0.836 4.006,1.64l412.159,272.781l1.328,0.291c5.1,1.117 8.735,5.633 8.735,10.854l0,0.825c0.015,0.249 0.022,0.499 0.02,0.75l-0.02,2.953l0,50.888c-0,3.007 -1.194,5.735 -3.135,7.735l253.279,92.031l-1232.149,-901.248l-133.115,120.946Zm2852.119,-2007.79l-0,-169.231l-134.662,-89.33l1.024,186.886l133.639,71.675Zm538.978,-369.266l-505.644,202.372l0,184.772l364.66,195.581l145.192,-68.242l-4.207,-514.483Zm358.869,138.321l-325.529,-137.613l4.192,512.638l295.633,148.668l-7.152,-489.395c-0.054,-3.714 1.75,-7.209 4.81,-9.315c2.091,-1.439 4.578,-2.1 7.045,-1.934l21.001,-23.049Zm255.116,132.632l104.194,-104.71l-237.482,-112.369l-109.524,120.203l242.813,96.875Zm81.206,570.895l-1.566,-551.792c-0.008,-2.9 1.118,-5.689 3.138,-7.77l38.756,-39.932l-1.744,-44.73l-93.87,94.335l7.049,583.497l48.238,-33.607Zm1271.067,352.689l-619.671,-516.445l-1.999,247.177l53.579,46.939c3.611,0.372 6.967,2.504 8.751,5.973l1.586,3.083l384.452,336.804c2.421,2.121 3.803,5.187 3.789,8.405l-1.201,281.794l182.601,158.608l397.332,174.434l417.832,-334.257l-315.159,-149.683c-0.742,-0.353 -1.428,-0.777 -2.051,-1.26l-52.743,36.936l0,219.602c0,2.577 -0.877,4.949 -2.349,6.834c-0.54,2.33 -1.832,4.504 -3.835,6.124l-104.667,84.667c-0.674,0.545 -1.392,0.998 -2.139,1.362c-0.941,2.01 -2.478,3.727 -4.46,4.884c-3.431,2.004 -7.671,2.023 -11.12,0.051l-383.446,-219.275c-3.46,-1.979 -5.595,-5.659 -5.595,-9.645l-0,-319.725c-1.954,-1.811 -3.212,-4.286 -3.497,-6.985c-0.363,-3.448 0.904,-6.867 3.425,-9.246l60.584,-57.154Zm-652.814,-540.161l-588.375,-334.227l0.72,253.579l585.626,331.559l2.029,-250.911Zm1148.079,771.246l0,-60.909l-151.969,127.767l1.632,275.985l78.837,-63.773l0,-220.267c0,-2.768 1.012,-5.299 2.686,-7.245c0.617,-2.529 2.12,-4.852 4.42,-6.463l64.394,-45.096Zm-2685.498,2070.893l367.253,-381.941c1.016,-1.056 2.23,-1.901 3.574,-2.486l421.709,-183.598l-525.059,-416.538l-7.119,-0.126c-6.136,-0.109 -11.021,-5.17 -10.913,-11.306l8.222,-464.556c0.058,-3.295 1.545,-6.23 3.86,-8.224c0.955,-2.962 3.143,-5.509 6.233,-6.821l1080.06,-458.736c3.884,-1.65 8.368,-0.957 11.573,1.789l728.979,624.603l421.328,-175.465l60.367,-48.293l-384.48,-168.829c1.408,0.618 2.929,0.938 4.467,0.938c4.468,0 8.415,-2.661 10.163,-6.618l-6.752,-2.964l-3.412,9.582l-1.181,-0.464c0.365,-0.003 0.569,-0.036 0.569,-0.036l-7.287,-2.723l-188.584,-163.832l-527.288,-264.73c-3.82,-1.918 -6.201,-5.857 -6.124,-10.131l5.401,-297.706c0.074,-4.09 2.39,-7.808 6.027,-9.679l117.24,-60.301l-41.269,-36.152l-1.428,-0.012c-4.791,-0.039 -8.849,-3.104 -10.375,-7.367l-585.882,-331.684l0.692,243.657c0.005,1.643 -0.348,3.204 -0.984,4.609c-0.728,2.23 -2.163,4.239 -4.21,5.666l-75.399,52.531c-0.883,1.58 -2.153,2.946 -3.729,3.951c-1.54,0.981 -3.269,1.551 -5.031,1.7c-2.095,0.763 -4.393,0.886 -6.594,0.315c-2.82,-0.732 -5.226,-2.538 -6.719,-5.009l-282.833,-136.071c-3.795,-1.826 -6.231,-5.64 -6.293,-9.85l-1.082,-74.003l-311.606,-156.7l-126.494,59.454l533.402,286.084c3.571,1.915 5.816,5.623 5.859,9.675l3.511,333.756c0.04,3.846 -1.911,7.44 -5.159,9.5l-916.998,581.587c-0.573,1.434 -1.444,2.747 -2.572,3.845c-2.113,2.054 -4.955,3.186 -7.901,3.144l-1.47,-0.021l-3.012,1.035c0,0 0.35,0.043 0.978,-0.011l-2.654,0.599l0.555,-0.014l-1.928,0.087l-2.986,-0.541c0.64,0.061 0.994,0.026 0.994,0.026l-4.601,-0.998c-0.949,-0.432 -9.168,-5.048 -23.265,-13.196c-122.864,-71.009 -723.665,-422.529 -810.157,-473.138l-331.185,192.334l893.797,633.105c4.274,3.027 5.762,8.522 3.902,13.18l0.031,4.011c0.103,0.843 0.108,1.689 0.019,2.521l3.107,404.574c0.033,4.315 -2.435,8.258 -6.329,10.115l-1198.662,571.449l278.316,101.129c1.168,0.424 2.256,1.042 3.22,1.826l354.104,288.245l321.805,90.627c1.846,0.52 3.525,1.508 4.876,2.87l165.561,166.881l68.585,-46.575l2.357,-130.449c-1.196,-1.642 -1.941,-3.611 -2.099,-5.71c-0.305,-4.061 1.636,-7.963 5.059,-10.17l326.825,-210.729c2.369,-1.528 5.231,-2.098 8.004,-1.594l195.238,35.419l2.508,-1.667c3.335,-2.217 7.605,-2.468 11.177,-0.657c3.572,1.811 5.893,5.404 6.075,9.405l0.447,9.812c0,0 0.452,9.942 1.075,22.792Zm827.166,-583.102l156.261,-68.031l81.817,-145.875l-774.855,-628.712l-7.275,411.013l544.051,431.604Zm254.624,-243.406l43.666,-77.853c1.216,-2.168 3.124,-3.866 5.419,-4.822l923.022,-384.4l-705.729,-604.682l-1041.881,442.52l775.503,629.237Zm-1604.702,1087.138l61.047,-41.456c3.923,-2.664 9.104,-2.545 12.9,0.297l58.035,43.437l-0.318,-34.84l-130.019,-58.499l-1.645,91.061Zm165.337,4.489c73.003,-47.538 277.555,-180.918 324.912,-213.764l1.965,-1.377l-0.038,-0.583c-0.662,-10.143 -1.522,-26.72 -2.239,-41.275l-324.974,216.063l0.374,40.937Zm-1807.326,-673.542l79.301,-42.562l0.174,-25.49l-76.012,-16.641l-3.463,84.693Zm-416.797,-241.697l383.703,235.155l3.554,-86.913l-388.793,-249.699l1.536,101.458Zm4770.571,-1049.933c-1.102,0.009 -3.664,-0.255 -6.449,-2.534l6.449,2.534Zm-2462.645,34.488l2.655,-0.6c-1.118,0.392 -2.026,0.545 -2.655,0.6Zm-7.013,0.131c-0.447,-0.043 -1.033,-0.133 -1.736,-0.315l1.736,0.315Zm2780.985,-337.589l-337.147,-205.036l-0,286.3l338.774,193.729l-1.627,-274.994Zm-2878.193,2200.503l316.681,-210.549l-152.523,-27.67l-285.079,183.812l120.922,54.406Zm89.424,-2226.674l-818.452,-489.332c1.088,127.048 2.372,280.48 2.711,335.057l812.402,474.142c0.947,-70.824 3.159,-243.028 3.338,-319.867Zm914.458,-533.824l-881.125,533.934c-0.177,75.258 -2.295,241.633 -3.276,315.274l887.413,-562.823l-3.013,-286.385Zm-1222.788,1247.03l-1230.524,-871.619l-1179.407,563.982l1238.846,908.165l1171.085,-600.529Zm-2429.324,-280.523l6.389,325.176l1236.702,904.578l-2.87,-320.58l-1240.221,-909.174Zm873.908,1071.27l-336.625,-222.79l-38.897,-7.584l350.005,224.788l25.517,5.586Zm4138.605,-1382.358l1.042,-244.525l-488.993,-256.177l-4.598,253.413l492.549,247.289Zm-83.175,-326.276l-287.326,-251.701l-97.449,50.122l384.775,201.579Zm-3652.851,1873.877l1168.154,-556.904l-2.827,-368.03l-1168.245,599.072l2.918,325.862Zm3923.464,-1880.582l341.983,207.977l157.911,-132.763l-353.29,-213.518l-146.604,138.303Zm-2170.693,2295.291l-9.828,12.266l0.293,-0.036l9.478,-9.348c0.144,-0.95 0.164,-1.919 0.058,-2.881Zm-7.32,12.241c-0.392,0.134 -0.792,0.246 -1.198,0.335l-2.289,2.272l3.487,-2.607Zm6.872,-7.674l-7.329,7.275c0.864,-0.266 1.691,-0.636 2.463,-1.1l1.783,-1.333c0.552,-0.506 1.055,-1.071 1.502,-1.69c0.701,-0.972 1.23,-2.037 1.582,-3.151Zm-9.822,8.251l-0.522,0.652l0.67,-0.661l-0.148,0.01Zm591.042,-3358.601l8.095,553.933l245.718,118.214l-6.93,-573.649l-246.884,-98.499Zm-250.236,3657.798c-0.568,2.265 -0.421,4.702 0.512,6.954c1.4,3.379 4.343,5.801 7.813,6.586l-0.309,-1.216c-3.574,-2.18 -9.212,-6.607 -8.016,-12.323Zm8.016,12.323c1.329,0.811 2.373,1.31 2.674,1.45c-0.532,-1.532 -6.535,-18.674 -8.662,-17.801l-0.703,0.883c-0.004,0.007 -0.02,0.033 -0.025,0.039c-0.567,0.925 -0.989,1.923 -1.263,2.958c3.108,-3.856 6.313,6.068 7.978,12.471Zm-5.988,-16.351l0.893,-1.127c-0.419,0.419 -0.8,0.867 -1.141,1.337c0.075,-0.104 0.158,-0.173 0.248,-0.21Zm-3.918,10.398l11.036,10.729c-0.092,-0.437 -0.373,-1.747 -0.8,-3.475c-3.078,-0.675 -5.768,-2.64 -7.333,-5.461c-1.416,-2.551 -1.751,-5.511 -1.022,-8.25c-0.327,0.421 -0.654,0.996 -0.977,1.746c-0.651,1.509 -0.948,3.118 -0.903,4.712Zm2.711,6.965l5.088,3.329c0.479,0.15 0.97,0.267 1.47,0.351l-9.081,-8.897c0.269,1.423 0.816,2.8 1.636,4.045c0.272,0.413 0.568,0.804 0.887,1.172Zm8.436,5.519l-1.76,-1.724c-0.443,-0.067 -0.877,-0.161 -1.301,-0.278l3.061,2.003Z" style="fill:#2b232b;"/><clipPath id="_clip1"><path d="M1224.423,3667.63l-796.834,-453.67c-3.437,-1.957 -5.575,-5.593 -5.613,-9.548l-5.753,-591.583c-0.03,-3.047 1.17,-5.819 3.136,-7.845c0.733,-2.727 2.499,-5.177 5.131,-6.712l4292.389,-2504.333c2.639,-1.54 5.651,-1.869 8.392,-1.157c2.74,-0.714 5.752,-0.388 8.393,1.15l3611.333,2102.5c3.403,1.981 5.362,5.492 5.513,9.154c1.184,1.763 1.876,3.884 1.879,6.168l0.894,573.395c0.006,3.992 -2.129,7.68 -5.594,9.662l-746.036,426.766c-3.444,1.97 -7.678,1.954 -11.107,-0.042c-3.429,-1.996 -5.534,-5.67 -5.521,-9.638l0.011,-3.286l-113.576,-74.345l-155.139,101.876l1.901,144.976c0.046,3.482 -1.516,6.612 -3.997,8.682c-0.947,1.87 -2.433,3.493 -4.388,4.612l-1254.889,718.389c-4.227,2.42 -9.375,1.756 -12.844,-1.283l-3.413,0.024c-6.136,0.044 -11.146,-4.895 -11.19,-11.032l-1.461,-205.388l-581.082,344.167l0.375,47.471c0.048,6.136 -4.887,11.15 -11.023,11.198l-1.287,0.01l-73.442,45.191l0.993,175.41c0.023,3.98 -2.086,7.668 -5.526,9.669l-1306.67,759.673c-1.381,0.803 -2.862,1.274 -4.354,1.44c-3.245,1.739 -7.284,1.828 -10.726,-0.118l-352.294,-199.191c-3.458,-1.955 -5.609,-5.607 -5.642,-9.58l-1.639,-196.607l-138.979,-86.033l-149.897,100.356c-3.391,2.27 -7.753,2.499 -11.363,0.596c-3.61,-1.903 -5.886,-5.632 -5.929,-9.712l-0.006,-0.572l-577.545,-319.972c-3.595,-1.992 -5.797,-5.804 -5.725,-9.913l2.889,-165.295l-200.043,-118.184c-3.387,-2.001 -5.464,-5.644 -5.459,-9.578l0.085,-80.989l-669.871,-388.093l-3.459,246.599c-0.056,3.976 -2.232,7.62 -5.708,9.553c-3.475,1.934 -7.719,1.863 -11.127,-0.186l-328.846,-197.676c-3.383,-2.034 -5.434,-5.71 -5.386,-9.657l1.772,-146.65l-179.438,-119.626l-137.661,98.85c-3.37,2.42 -7.807,2.761 -11.507,0.884c-3.7,-1.877 -6.046,-5.658 -6.085,-9.806l-0.01,-1.12Zm-774.577,-1025.212l5.338,548.895l768.881,437.756l-4.832,-520.797l-769.387,-465.854Zm4275.441,-2514.793l-4259.78,2485.308l770.187,466.338l135.841,-104.845c3.56,-2.747 8.424,-3.078 12.323,-0.839l363.159,208.59c3.255,1.87 5.346,5.256 5.559,9.004c0.213,3.748 -1.48,7.35 -4.502,9.576l-138.885,102.328l1015.568,595.745l127.893,-117.921c3.411,-3.145 8.418,-3.84 12.556,-1.742l373.497,189.349c3.747,1.9 6.102,5.75 6.087,9.951l-0.413,113.396c-0.015,4.012 -2.191,7.705 -5.694,9.661l-81.293,45.39l320.709,189.643l146.443,-97.219c3.401,-2.258 7.766,-2.469 11.369,-0.55l324.076,172.617c3.7,1.971 5.976,5.856 5.885,10.047c-0.091,4.191 -2.533,7.974 -6.315,9.783l-128.063,61.243l308.037,163.081l883.905,-525.022l-5.976,-2.065c-4.28,-1.479 -7.234,-5.407 -7.467,-9.93l-4.529,-87.859c-0.209,-4.051 1.806,-7.893 5.257,-10.025l361.402,-223.24c4.098,-2.532 9.361,-2.134 13.032,0.984l85.226,72.39l733.1,-418.274l-38.171,-16.775c-4.033,-1.772 -6.638,-5.76 -6.641,-10.165l-0.06,-92.449c-0.003,-4.268 2.44,-8.161 6.284,-10.015l348.532,-168.105c3.514,-1.695 7.66,-1.423 10.922,0.718l116.792,76.628l718.773,-401.337l-114.563,-88.69c-2.881,-2.23 -4.485,-5.731 -4.294,-9.37c0.191,-3.638 2.154,-6.952 5.253,-8.867l314.918,-194.679c3.934,-2.432 8.963,-2.173 12.626,0.651l130.819,100.851l699.53,-419.665l-3578.916,-2083.627Zm2894.85,2532.887l-1.655,513.034l701.448,-401.259l-0.828,-531.101l-698.965,419.326Zm-304.334,536.091l138.901,-91.213l-4.401,-530.032l-259.202,160.236l115.805,89.653c2.95,2.284 4.557,5.896 4.278,9.616c-0.024,0.318 -0.061,0.632 -0.111,0.944l4.73,360.797Zm172.235,-91.327l97.127,63.578l1.643,-509.621l-103.134,-79.508l4.364,525.551Zm-203.293,265.09l-6.703,-511.289l-705.466,393.906l19.854,13.026c3.07,2.014 4.946,5.414 5.014,9.085l6.23,337.189c0.079,4.255 -2.28,8.18 -6.073,10.109l-332.161,168.913l-0.708,1.101c-3.319,5.162 -10.193,6.656 -15.355,3.337l-79.701,-51.24c-2.582,-0.663 -4.803,-2.23 -6.302,-4.345c-3.378,-3.359 -4.265,-8.589 -2.059,-12.912l-0.727,-249.628l-19.11,-8.398l-744.069,424.532l35.322,30.002c5.494,0.633 9.78,5.278 9.825,10.95l2.099,266.024l597.67,-353.992c3.422,-2.027 7.667,-2.07 11.13,-0.113c3.463,1.957 5.615,5.616 5.643,9.594l1.528,214.923l1224.118,-700.773Zm-1872.863,901.472l-2.437,-308.882l-297.944,178.219l0,315.497l215.993,-132.907c1.832,-3.395 5.38,-5.732 9.49,-5.839l74.899,-46.088Zm-1355.214,972.695l1270.501,-738.645l-0.806,-142.29l-215.432,132.562c-0.814,2.443 -2.466,4.566 -4.723,5.953c-3.288,2.022 -7.391,2.192 -10.835,0.449l-0.938,-0.475c-1.364,-0.387 -2.657,-1.033 -3.796,-1.921l-3.329,-1.684c0,0 -65.18,-32.986 -77.768,-40.031c-1.62,-0.907 -2.756,-1.632 -3.385,-2.068c1.85,1.271 4.044,1.954 6.294,1.954c2.351,0 4.571,-0.739 6.402,-2.029l-3.073,-5.998l-3.329,8.028l-7.926,-3.324l-1.311,-1.323l7.855,3.253l-10.228,-6.769l-0.861,-2.001l1.494,0.978c-1.183,-1.448 -2.008,-3.199 -2.34,-5.12l-0.082,-0.08l-0.014,-0.604c-0.044,-0.399 -0.066,-0.805 -0.066,-1.216c-0,-0 -0.002,-3.318 -0.075,-7.9c-0.678,-42.136 -5.279,-226.163 -6.63,-279.91l-27.565,-9.525l-908.035,539.354l0,560.38Zm-349.703,-371.745l1.622,194.556l314.748,177.962l0,-560.603l-312.521,-165.455l-3.848,353.54Zm-311.592,-507.686l5.08,482.513l117.212,-78.474l-3.131,-483.148l-119.161,79.108Zm155.645,403.592l122.916,76.089l3.735,-343.082l-0.772,-0.409c-3.709,-1.964 -5.996,-5.85 -5.91,-10.047c0.086,-4.196 2.529,-7.986 6.315,-9.797l128.187,-61.303l-257.232,-137.013c1.134,98.957 2.517,426.299 2.761,485.562Zm-730.854,-355.89l-2.325,133.029l549.305,304.326l-5.1,-484.369l-321.489,-190.103l-0.562,293.817c-0.008,4.131 -2.307,7.916 -5.968,9.828l-48.271,25.207c-3.405,1.778 -7.487,1.671 -10.795,-0.283l-154.796,-91.452Zm-204.861,-438.301l-0.293,278.383l349.056,206.219l-0.44,-282.169l-348.323,-202.432Zm-1018.445,-640.003l-6.021,498.255l284.794,171.195l3.449,-245.887c0.055,-3.944 2.198,-7.564 5.629,-9.51c3.431,-1.946 7.637,-1.926 11.051,0.051l686.03,397.455l0.214,-202.949c0.003,-3.099 1.301,-6.056 3.579,-8.157l13.559,-12.502l-1002.283,-587.951Zm-344.289,-226.144l4.799,517.264l107.583,-77.252l-2.668,-524.691l-109.714,84.68Zm145.731,442.815l161.305,107.537l4.153,-343.625l-0.515,-0.302c-3.222,-1.89 -5.279,-5.273 -5.474,-9.004c-0.195,-3.731 1.498,-7.31 4.505,-9.525l138.613,-102.128l-305.294,-175.354l2.708,532.402Zm3616.006,897.211l-2.33,1.293l0.137,-0.057l-0.359,0.185c0.203,0.018 0.835,0.056 1.717,-0.065l0.224,-0.229l0.499,-0.753l0.383,-0.159l0.021,-0.05c-0.066,-0.037 -0.13,-0.074 -0.193,-0.11c-0.033,-0.019 -0.066,-0.038 -0.098,-0.057Zm4.281,2.347l2.571,3.31l0.178,-0.137c0.303,-0.403 0.58,-0.829 0.827,-1.275c-1.251,-0.661 -2.446,-1.296 -3.577,-1.899Zm-4.222,-301.653l0.018,0.728l0.834,-0.855c-0.281,0.053 -0.565,0.096 -0.852,0.127Zm17.641,296.169l0.018,0.009c0.127,-0.593 0.206,-1.203 0.234,-1.828l-0.252,1.819Zm-19.893,4.374l2.291,-1.18l-0.211,0.318l-2.081,0.862Zm-1969.85,-332.433l68.829,-38.431l0.171,-46.902l-69,85.333Zm61.463,-129.027l-339.827,-172.28l-137.327,126.619l349.729,203.249l127.425,-157.588Zm1990.915,124.26l298.504,-178.554l-117.252,-99.592l-321.016,198.294l139.764,79.852Zm-154.147,-49.679l2.017,39.125l74.266,25.663c5.114,1.767 8.21,6.961 7.336,12.297l1.104,-1.132c0,0 6.14,242.597 6.995,294.116c10.923,5.769 30.325,15.695 45.955,23.653l0,-315.063l-137.673,-78.658Zm1318.718,-656.529l286.143,-131.219l-128.777,-84.491l-300.541,144.958l143.175,70.752Zm-167.252,-45.469l0.033,50.321l95.245,41.858c4.024,1.769 6.628,5.744 6.641,10.14l0.751,257.859l49.731,31.972l-2.017,-317.836l-150.383,-74.314Zm-3094.558,1100.111l9.284,-4.848l0.565,-295.52l-10.297,12.735l0.448,287.633Zm2022.982,-15.493l0.106,-0.054c0.09,-0.159 0.171,-0.323 0.244,-0.491l-0.08,0.044l-0.051,0.194l-0.219,0.307Zm1544.232,-1142.529l-288.937,132.5l1.983,312.364l292.426,-148.707l-5.472,-296.157Zm-4513.173,59.762l-388.895,-299.886l-199.142,-93.344l-0.08,-0.038l-482.722,-230.948c-3.355,-1.605 -5.685,-4.783 -6.206,-8.465c-0.521,-3.683 0.834,-7.382 3.612,-9.856l639.176,-569.204c0.801,-0.714 1.702,-1.307 2.673,-1.763l1164.802,-546.038c3.593,-1.684 7.812,-1.325 11.068,0.944l112.234,78.204l598.303,-321.314l-232.853,-120.528c-3.533,-1.829 -5.819,-5.407 -5.993,-9.382c-0.174,-3.975 1.791,-7.739 5.151,-9.869l919.336,-582.902c2.812,-1.783 6.12,-2.146 9.083,-1.276c2.98,-0.808 6.28,-0.377 9.055,1.464l160.879,106.721l530.603,-212.362c2.103,-0.842 4.31,-0.995 6.374,-0.568c2.072,-0.389 4.277,-0.193 6.364,0.69l359.718,152.066l84.566,-92.812c3.289,-3.61 8.551,-4.649 12.965,-2.56l280.495,132.721c3.263,1.544 5.572,4.576 6.193,8.131c0.609,3.484 -0.478,7.044 -2.917,9.593l3.271,83.915c0.118,3.037 -1.013,5.99 -3.129,8.171l-27.928,28.775l610.161,346.603c0.574,0.326 1.118,0.703 1.626,1.126l642.701,535.639l95.089,-89.706c3.631,-3.425 9.1,-4.009 13.372,-1.427l394.311,238.309c3.067,1.854 5.052,5.073 5.33,8.646c0.278,3.573 -1.183,7.061 -3.926,9.368l0.001,91.713l344.838,163.778c3.459,1.643 5.828,4.951 6.27,8.754c0.442,3.804 -1.106,7.567 -4.096,9.959l-537.768,430.203c-0.811,0.649 -1.71,1.181 -2.669,1.581l-1374.632,572.477l-141.932,253.055c-1.186,2.115 -3.032,3.784 -5.256,4.752l-615.383,267.917l-385.783,401.212c0.036,0.567 0.071,1.117 0.106,1.649c0.277,4.236 0.658,8.128 0.658,8.128c0.066,0.677 0.07,1.354 0.013,2.022l0.154,-0.152l-0.013,1.308l-0.38,0.377c-0.322,1.41 -0.918,2.752 -1.761,3.944l1.687,-1.262l-0.443,1.528l-10.682,8.051l9.346,-5.101l-0.821,1.288l-9.39,5.17l8.51,-3.967c-0.765,0.912 -5.175,4.71 -13.071,10.187c-58.051,40.264 -351.751,231.249 -351.751,231.249l-3.252,2.115c-3.907,2.54 -8.984,2.373 -12.715,-0.42l-74.867,-56.035l-165.538,112.414c-4.425,3.005 -10.363,2.431 -14.13,-1.367l-174.436,-175.826l-320.607,-90.289c-1.462,-0.412 -2.824,-1.119 -4.002,-2.078l-354.765,-288.783l-599.909,-217.983c-0.938,-0.341 -1.803,-0.795 -2.584,-1.342l-77.908,41.815c-0.602,0.513 -1.264,0.966 -1.978,1.347c-3.477,1.855 -7.676,1.729 -11.036,-0.33l-423.79,-259.722c-2.483,-1.522 -4.157,-3.862 -4.889,-6.46c-1.863,-1.953 -3.023,-4.586 -3.067,-7.498l-1.003,-66.218Zm2132.888,-2680.115l-861.234,546.062l171.294,88.664l690.955,-449.325l-1.016,-185.402Zm-655.924,652.334l30.61,15.844c3.661,1.895 5.972,5.661 6.003,9.783c0.031,4.122 -2.222,7.923 -5.854,9.873l-0.413,0.222c0.188,21.503 0.659,75.357 1.224,141.058l835.629,499.602l882.585,-534.82l-1078.209,-578.284l-671.575,436.722Zm-2.848,53.55l-602.006,323.303l1.012,189.102l263.869,186.907l341.224,-198.165l-4.099,-501.147Zm-635.347,322.097l-103.015,-71.781l-1146.642,537.525l-0.001,242.025l1196.756,-572.278c3.636,-1.738 7.927,-1.372 11.216,0.957l42.579,30.16l-0.891,-166.607Zm-1282.991,493.902l-582.09,518.368l442.453,211.682l146.64,-133.235l-5.874,-298.843c-0.723,-1.474 -1.129,-3.132 -1.129,-4.885l0.002,-52.45c-0.001,-0.149 -0.001,-0.297 -0,-0.445l-0.001,-240.193Zm-107.009,745.442l178.69,83.758c0.734,0.344 1.428,0.767 2.069,1.262l369.826,285.181l-0.575,-37.969c-0.083,-5.498 3.842,-10.124 9.074,-11.093c2.421,-3.581 6.826,-5.564 11.336,-4.685l118.472,23.1c1.43,0.279 2.791,0.836 4.006,1.64l412.159,272.781l1.328,0.291c5.1,1.117 8.735,5.633 8.735,10.854l0,0.825c0.015,0.249 0.022,0.499 0.02,0.75l-0.02,2.953l0,50.888c-0,3.007 -1.194,5.735 -3.135,7.735l253.279,92.031l-1232.149,-901.248l-133.115,120.946Zm2852.119,-2007.79l-0,-169.231l-134.662,-89.33l1.024,186.886l133.639,71.675Zm538.978,-369.266l-505.644,202.372l0,184.772l364.66,195.581l145.192,-68.242l-4.207,-514.483Zm358.869,138.321l-325.529,-137.613l4.192,512.638l295.633,148.668l-7.152,-489.395c-0.054,-3.714 1.75,-7.209 4.81,-9.315c2.091,-1.439 4.578,-2.1 7.045,-1.934l21.001,-23.049Zm255.116,132.632l104.194,-104.71l-237.482,-112.369l-109.524,120.203l242.813,96.875Zm81.206,570.895l-1.566,-551.792c-0.008,-2.9 1.118,-5.689 3.138,-7.77l38.756,-39.932l-1.744,-44.73l-93.87,94.335l7.049,583.497l48.238,-33.607Zm1271.067,352.689l-619.671,-516.445l-1.999,247.177l53.579,46.939c3.611,0.372 6.967,2.504 8.751,5.973l1.586,3.083l384.452,336.804c2.421,2.121 3.803,5.187 3.789,8.405l-1.201,281.794l182.601,158.608l397.332,174.434l417.832,-334.257l-315.159,-149.683c-0.742,-0.353 -1.428,-0.777 -2.051,-1.26l-52.743,36.936l0,219.602c0,2.577 -0.877,4.949 -2.349,6.834c-0.54,2.33 -1.832,4.504 -3.835,6.124l-104.667,84.667c-0.674,0.545 -1.392,0.998 -2.139,1.362c-0.941,2.01 -2.478,3.727 -4.46,4.884c-3.431,2.004 -7.671,2.023 -11.12,0.051l-383.446,-219.275c-3.46,-1.979 -5.595,-5.659 -5.595,-9.645l-0,-319.725c-1.954,-1.811 -3.212,-4.286 -3.497,-6.985c-0.363,-3.448 0.904,-6.867 3.425,-9.246l60.584,-57.154Zm-652.814,-540.161l-588.375,-334.227l0.72,253.579l585.626,331.559l2.029,-250.911Zm1148.079,771.246l0,-60.909l-151.969,127.767l1.632,275.985l78.837,-63.773l0,-220.267c0,-2.768 1.012,-5.299 2.686,-7.245c0.617,-2.529 2.12,-4.852 4.42,-6.463l64.394,-45.096Zm-2685.498,2070.893l367.253,-381.941c1.016,-1.056 2.23,-1.901 3.574,-2.486l421.709,-183.598l-525.059,-416.538l-7.119,-0.126c-6.136,-0.109 -11.021,-5.17 -10.913,-11.306l8.222,-464.556c0.058,-3.295 1.545,-6.23 3.86,-8.224c0.955,-2.962 3.143,-5.509 6.233,-6.821l1080.06,-458.736c3.884,-1.65 8.368,-0.957 11.573,1.789l728.979,624.603l421.328,-175.465l60.367,-48.293l-384.48,-168.829c1.408,0.618 2.929,0.938 4.467,0.938c4.468,0 8.415,-2.661 10.163,-6.618l-6.752,-2.964l-3.412,9.582l-1.181,-0.464c0.365,-0.003 0.569,-0.036 0.569,-0.036l-7.287,-2.723l-188.584,-163.832l-527.288,-264.73c-3.82,-1.918 -6.201,-5.857 -6.124,-10.131l5.401,-297.706c0.074,-4.09 2.39,-7.808 6.027,-9.679l117.24,-60.301l-41.269,-36.152l-1.428,-0.012c-4.791,-0.039 -8.849,-3.104 -10.375,-7.367l-585.882,-331.684l0.692,243.657c0.005,1.643 -0.348,3.204 -0.984,4.609c-0.728,2.23 -2.163,4.239 -4.21,5.666l-75.399,52.531c-0.883,1.58 -2.153,2.946 -3.729,3.951c-1.54,0.981 -3.269,1.551 -5.031,1.7c-2.095,0.763 -4.393,0.886 -6.594,0.315c-2.82,-0.732 -5.226,-2.538 -6.719,-5.009l-282.833,-136.071c-3.795,-1.826 -6.231,-5.64 -6.293,-9.85l-1.082,-74.003l-311.606,-156.7l-126.494,59.454l533.402,286.084c3.571,1.915 5.816,5.623 5.859,9.675l3.511,333.756c0.04,3.846 -1.911,7.44 -5.159,9.5l-916.998,581.587c-0.573,1.434 -1.444,2.747 -2.572,3.845c-2.113,2.054 -4.955,3.186 -7.901,3.144l-1.47,-0.021l-3.012,1.035c0,0 0.35,0.043 0.978,-0.011l-2.654,0.599l0.555,-0.014l-1.928,0.087l-2.986,-0.541c0.64,0.061 0.994,0.026 0.994,0.026l-4.601,-0.998c-0.949,-0.432 -9.168,-5.048 -23.265,-13.196c-122.864,-71.009 -723.665,-422.529 -810.157,-473.138l-331.185,192.334l893.797,633.105c4.274,3.027 5.762,8.522 3.902,13.18l0.031,4.011c0.103,0.843 0.108,1.689 0.019,2.521l3.107,404.574c0.033,4.315 -2.435,8.258 -6.329,10.115l-1198.662,571.449l278.316,101.129c1.168,0.424 2.256,1.042 3.22,1.826l354.104,288.245l321.805,90.627c1.846,0.52 3.525,1.508 4.876,2.87l165.561,166.881l68.585,-46.575l2.357,-130.449c-1.196,-1.642 -1.941,-3.611 -2.099,-5.71c-0.305,-4.061 1.636,-7.963 5.059,-10.17l326.825,-210.729c2.369,-1.528 5.231,-2.098 8.004,-1.594l195.238,35.419l2.508,-1.667c3.335,-2.217 7.605,-2.468 11.177,-0.657c3.572,1.811 5.893,5.404 6.075,9.405l0.447,9.812c0,0 0.452,9.942 1.075,22.792Zm827.166,-583.102l156.261,-68.031l81.817,-145.875l-774.855,-628.712l-7.275,411.013l544.051,431.604Zm254.624,-243.406l43.666,-77.853c1.216,-2.168 3.124,-3.866 5.419,-4.822l923.022,-384.4l-705.729,-604.682l-1041.881,442.52l775.503,629.237Zm-1604.702,1087.138l61.047,-41.456c3.923,-2.664 9.104,-2.545 12.9,0.297l58.035,43.437l-0.318,-34.84l-130.019,-58.499l-1.645,91.061Zm165.337,4.489c73.003,-47.538 277.555,-180.918 324.912,-213.764l1.965,-1.377l-0.038,-0.583c-0.662,-10.143 -1.522,-26.72 -2.239,-41.275l-324.974,216.063l0.374,40.937Zm-1807.326,-673.542l79.301,-42.562l0.174,-25.49l-76.012,-16.641l-3.463,84.693Zm-416.797,-241.697l383.703,235.155l3.554,-86.913l-388.793,-249.699l1.536,101.458Zm4770.571,-1049.933c-1.102,0.009 -3.664,-0.255 -6.449,-2.534l6.449,2.534Zm-2462.645,34.488l2.655,-0.6c-1.118,0.392 -2.026,0.545 -2.655,0.6Zm-7.013,0.131c-0.447,-0.043 -1.033,-0.133 -1.736,-0.315l1.736,0.315Zm2780.985,-337.589l-337.147,-205.036l-0,286.3l338.774,193.729l-1.627,-274.994Zm-2878.193,2200.503l316.681,-210.549l-152.523,-27.67l-285.079,183.812l120.922,54.406Zm89.424,-2226.674l-818.452,-489.332c1.088,127.048 2.372,280.48 2.711,335.057l812.402,474.142c0.947,-70.824 3.159,-243.028 3.338,-319.867Zm914.458,-533.824l-881.125,533.934c-0.177,75.258 -2.295,241.633 -3.276,315.274l887.413,-562.823l-3.013,-286.385Zm-1222.788,1247.03l-1230.524,-871.619l-1179.407,563.982l1238.846,908.165l1171.085,-600.529Zm-2429.324,-280.523l6.389,325.176l1236.702,904.578l-2.87,-320.58l-1240.221,-909.174Zm873.908,1071.27l-336.625,-222.79l-38.897,-7.584l350.005,224.788l25.517,5.586Zm4138.605,-1382.358l1.042,-244.525l-488.993,-256.177l-4.598,253.413l492.549,247.289Zm-83.175,-326.276l-287.326,-251.701l-97.449,50.122l384.775,201.579Zm-3652.851,1873.877l1168.154,-556.904l-2.827,-368.03l-1168.245,599.072l2.918,325.862Zm3923.464,-1880.582l341.983,207.977l157.911,-132.763l-353.29,-213.518l-146.604,138.303Zm-2170.693,2295.291l-9.828,12.266l0.293,-0.036l9.478,-9.348c0.144,-0.95 0.164,-1.919 0.058,-2.881Zm-7.32,12.241c-0.392,0.134 -0.792,0.246 -1.198,0.335l-2.289,2.272l3.487,-2.607Zm6.872,-7.674l-7.329,7.275c0.864,-0.266 1.691,-0.636 2.463,-1.1l1.783,-1.333c0.552,-0.506 1.055,-1.071 1.502,-1.69c0.701,-0.972 1.23,-2.037 1.582,-3.151Zm-9.822,8.251l-0.522,0.652l0.67,-0.661l-0.148,0.01Zm591.042,-3358.601l8.095,553.933l245.718,118.214l-6.93,-573.649l-246.884,-98.499Zm-250.236,3657.798c-0.568,2.265 -0.421,4.702 0.512,6.954c1.4,3.379 4.343,5.801 7.813,6.586l-0.309,-1.216c-3.574,-2.18 -9.212,-6.607 -8.016,-12.323Zm8.016,12.323c1.329,0.811 2.373,1.31 2.674,1.45c-0.532,-1.532 -6.535,-18.674 -8.662,-17.801l-0.703,0.883c-0.004,0.007 -0.02,0.033 -0.025,0.039c-0.567,0.925 -0.989,1.923 -1.263,2.958c3.108,-3.856 6.313,6.068 7.978,12.471Zm-5.988,-16.351l0.893,-1.127c-0.419,0.419 -0.8,0.867 -1.141,1.337c0.075,-0.104 0.158,-0.173 0.248,-0.21Zm-3.918,10.398l11.036,10.729c-0.092,-0.437 -0.373,-1.747 -0.8,-3.475c-3.078,-0.675 -5.768,-2.64 -7.333,-5.461c-1.416,-2.551 -1.751,-5.511 -1.022,-8.25c-0.327,0.421 -0.654,0.996 -0.977,1.746c-0.651,1.509 -0.948,3.118 -0.903,4.712Zm2.711,6.965l5.088,3.329c0.479,0.15 0.97,0.267 1.47,0.351l-9.081,-8.897c0.269,1.423 0.816,2.8 1.636,4.045c0.272,0.413 0.568,0.804 0.887,1.172Zm8.436,5.519l-1.76,-1.724c-0.443,-0.067 -0.877,-0.161 -1.301,-0.278l3.061,2.003Z"/></clipPath><g clip-path="url(#_clip1)"><path d="M1224.423,3667.63l-796.834,-453.67c-3.437,-1.957 -5.575,-5.593 -5.613,-9.548l-5.753,-591.583c-0.03,-3.047 1.17,-5.819 3.136,-7.845c0.733,-2.727 2.499,-5.177 5.131,-6.712l4292.389,-2504.333c2.639,-1.54 5.651,-1.869 8.392,-1.157c2.74,-0.714 5.752,-0.388 8.393,1.15l3611.333,2102.5c3.403,1.981 5.362,5.492 5.513,9.154c1.184,1.763 1.876,3.884 1.879,6.168l0.894,573.395c0.006,3.992 -2.129,7.68 -5.594,9.662l-746.036,426.766c-3.444,1.97 -7.678,1.954 -11.107,-0.042c-3.429,-1.996 -5.534,-5.67 -5.521,-9.638l0.011,-3.286l-113.576,-74.345l-155.139,101.876l1.901,144.976c0.046,3.482 -1.516,6.612 -3.997,8.682c-0.947,1.87 -2.433,3.493 -4.388,4.612l-1254.889,718.389c-4.227,2.42 -9.375,1.756 -12.844,-1.283l-3.413,0.024c-6.136,0.044 -11.146,-4.895 -11.19,-11.032l-1.461,-205.388l-581.082,344.167l0.375,47.471c0.048,6.136 -4.887,11.15 -11.023,11.198l-1.287,0.01l-73.442,45.191l0.993,175.41c0.023,3.98 -2.086,7.668 -5.526,9.669l-1306.67,759.673c-1.381,0.803 -2.862,1.274 -4.354,1.44c-3.245,1.739 -7.284,1.828 -10.726,-0.118l-352.294,-199.191c-3.458,-1.955 -5.609,-5.607 -5.642,-9.58l-1.639,-196.607l-138.979,-86.033l-149.897,100.356c-3.391,2.27 -7.753,2.499 -11.363,0.596c-3.61,-1.903 -5.886,-5.632 -5.929,-9.712l-0.006,-0.572l-577.545,-319.972c-3.595,-1.992 -5.797,-5.804 -5.725,-9.913l2.889,-165.295l-200.043,-118.184c-3.387,-2.001 -5.464,-5.644 -5.459,-9.578l0.085,-80.989l-669.871,-388.093l-3.459,246.599c-0.056,3.976 -2.232,7.62 -5.708,9.553c-3.475,1.934 -7.719,1.863 -11.127,-0.186l-328.846,-197.676c-3.383,-2.034 -5.434,-5.71 -5.386,-9.657l1.772,-146.65l-179.438,-119.626l-137.661,98.85c-3.37,2.42 -7.807,2.761 -11.507,0.884c-3.7,-1.877 -6.046,-5.658 -6.085,-9.806l-0.01,-1.12Zm1595.741,745.173l-2.325,133.029l549.305,304.326l-5.1,-484.369l-321.489,-190.103l-0.562,293.817c-0.008,4.131 -2.307,7.916 -5.968,9.828l-48.271,25.207c-3.405,1.778 -7.487,1.671 -10.795,-0.283l-154.796,-91.452Zm886.8,459.984l1.622,194.556l314.748,177.962l0,-560.603l-312.521,-165.455l-3.848,353.54Zm3781.072,-1767.512l97.127,63.578l1.643,-509.621l-103.134,-79.508l4.364,525.551Zm-172.235,91.327l138.901,-91.213l-4.401,-530.032l-259.202,160.236l115.805,89.653c2.95,2.284 4.557,5.896 4.278,9.616c-0.024,0.318 -0.061,0.632 -0.111,0.944l4.73,360.797Zm-2301.438,952.472l0.018,0.728l0.834,-0.855c-0.281,0.053 -0.565,0.096 -0.852,0.127Zm17.641,296.169l0.018,0.009c0.127,-0.593 0.206,-1.203 0.234,-1.828l-0.252,1.819Zm-1989.743,-328.058l68.829,-38.431l0.171,-46.902l-69,85.333Zm-2592.417,-1474.766l5.338,548.895l768.881,437.756l-4.832,-520.797l-769.387,-465.854Zm4570.538,1802.939l0.106,-0.054c0.09,-0.159 0.171,-0.323 0.244,-0.491l-0.08,0.044l-0.051,0.194l-0.219,0.307Zm1544.232,-1142.529l-288.937,132.5l1.983,312.364l292.426,-148.707l-5.472,-296.157Zm-5312.048,-194.475l4.799,517.264l107.583,-77.252l-2.668,-524.691l-109.714,84.68Zm3687.925,954.384l2.017,39.125l74.266,25.663c5.114,1.767 8.21,6.961 7.336,12.297l1.104,-1.132c0,0 6.14,242.597 6.995,294.116c10.923,5.769 30.325,15.695 45.955,23.653l0,-315.063l-137.673,-78.658Zm1318.718,-656.529l286.143,-131.219l-128.777,-84.491l-300.541,144.958l143.175,70.752Zm-167.252,-45.469l0.033,50.321l95.245,41.858c4.024,1.769 6.628,5.744 6.641,10.14l0.751,257.859l49.731,31.972l-2.017,-317.836l-150.383,-74.314Zm-3094.558,1100.111l9.284,-4.848l0.565,-295.52l-10.297,12.735l0.448,287.633Zm-382.099,-486.349l-0.293,278.383l349.056,206.219l-0.44,-282.169l-348.323,-202.432Zm-1018.445,-640.003l-6.021,498.255l284.794,171.195l3.449,-245.887c0.055,-3.944 2.198,-7.564 5.629,-9.51c3.431,-1.946 7.637,-1.926 11.051,0.051l686.03,397.455l0.214,-202.949c0.003,-3.099 1.301,-6.056 3.579,-8.157l13.559,-12.502l-1002.283,-587.951Zm1798.514,1030.603l5.08,482.513l117.212,-78.474l-3.131,-483.148l-119.161,79.108Zm1603.643,77.251l11.036,10.729c-0.092,-0.437 -0.373,-1.747 -0.8,-3.475c-3.078,-0.675 -5.768,-2.64 -7.333,-5.461c-1.416,-2.551 -1.751,-5.511 -1.022,-8.25c-0.327,0.421 -0.654,0.996 -0.977,1.746c-0.651,1.509 -0.948,3.118 -0.903,4.712Zm2.711,6.965l5.088,3.329c0.479,0.15 0.97,0.267 1.47,0.351l-9.081,-8.897c0.269,1.423 0.816,2.8 1.636,4.045c0.272,0.413 0.568,0.804 0.887,1.172Zm8.436,5.519l-1.76,-1.724c-0.443,-0.067 -0.877,-0.161 -1.301,-0.278l3.061,2.003Zm-1906.437,-466.679l-339.827,-172.28l-137.327,126.619l349.729,203.249l127.425,-157.588Zm1990.915,124.26l298.504,-178.554l-117.252,-99.592l-321.016,198.294l139.764,79.852Zm2525.496,-1451.906l-1.655,513.034l701.448,-401.259l-0.828,-531.101l-698.965,419.326Zm-335.393,709.853l-6.703,-511.289l-705.466,393.906l19.854,13.026c3.07,2.014 4.946,5.414 5.014,9.085l6.23,337.189c0.079,4.255 -2.28,8.18 -6.073,10.109l-332.161,168.913l-0.708,1.101c-3.319,5.162 -10.193,6.656 -15.355,3.337l-79.701,-51.24c-2.582,-0.663 -4.803,-2.23 -6.302,-4.345c-3.378,-3.359 -4.265,-8.589 -2.059,-12.912l-0.727,-249.628l-19.11,-8.398l-744.069,424.532l35.322,30.002c5.494,0.633 9.78,5.278 9.825,10.95l2.099,266.024l597.67,-353.992c3.422,-2.027 7.667,-2.07 11.13,-0.113c3.463,1.957 5.615,5.616 5.643,9.594l1.528,214.923l1224.118,-700.773Zm-5886.445,180.804l161.305,107.537l4.153,-343.625l-0.515,-0.302c-3.222,-1.89 -5.279,-5.273 -5.474,-9.004c-0.195,-3.731 1.498,-7.31 4.505,-9.525l138.613,-102.128l-305.294,-175.354l2.708,532.402Zm4013.582,720.668l-2.437,-308.882l-297.944,178.219l0,315.497l215.993,-132.907c1.832,-3.395 5.38,-5.732 9.49,-5.839l74.899,-46.088Zm-393.295,178.89l2.571,3.31l0.178,-0.137c0.303,-0.403 0.58,-0.829 0.827,-1.275c-1.251,-0.661 -2.446,-1.296 -3.577,-1.899Zm-293.299,-4323.102l-4259.78,2485.308l770.187,466.338l135.841,-104.845c3.56,-2.747 8.424,-3.078 12.323,-0.839l363.159,208.59c3.255,1.87 5.346,5.256 5.559,9.004c0.213,3.748 -1.48,7.35 -4.502,9.576l-138.885,102.328l1015.568,595.745l127.893,-117.921c3.411,-3.145 8.418,-3.84 12.556,-1.742l373.497,189.349c3.747,1.9 6.102,5.75 6.087,9.951l-0.413,113.396c-0.015,4.012 -2.191,7.705 -5.694,9.661l-81.293,45.39l320.709,189.643l146.443,-97.219c3.401,-2.258 7.766,-2.469 11.369,-0.55l324.076,172.617c3.7,1.971 5.976,5.856 5.885,10.047c-0.091,4.191 -2.533,7.974 -6.315,9.783l-128.063,61.243l308.037,163.081l883.905,-525.022l-5.976,-2.065c-4.28,-1.479 -7.234,-5.407 -7.467,-9.93l-4.529,-87.859c-0.209,-4.051 1.806,-7.893 5.257,-10.025l361.402,-223.24c4.098,-2.532 9.361,-2.134 13.032,0.984l85.226,72.39l733.1,-418.274l-38.171,-16.775c-4.033,-1.772 -6.638,-5.76 -6.641,-10.165l-0.06,-92.449c-0.003,-4.268 2.44,-8.161 6.284,-10.015l348.532,-168.105c3.514,-1.695 7.66,-1.423 10.922,0.718l116.792,76.628l718.773,-401.337l-114.563,-88.69c-2.881,-2.23 -4.485,-5.731 -4.294,-9.37c0.191,-3.638 2.154,-6.952 5.253,-8.867l314.918,-194.679c3.934,-2.432 8.963,-2.173 12.626,0.651l130.819,100.851l699.53,-419.665l-3578.916,-2083.627Zm-1174.269,4641.068l122.916,76.089l3.735,-343.082l-0.772,-0.409c-3.709,-1.964 -5.996,-5.85 -5.91,-10.047c0.086,-4.196 2.529,-7.986 6.315,-9.797l128.187,-61.303l-257.232,-137.013c1.134,98.957 2.517,426.299 2.761,485.562Zm1461.094,-319.076l-0.359,0.185c0.203,0.018 0.835,0.056 1.717,-0.065l0.224,-0.229l0.499,-0.753l0.383,-0.159l0.021,-0.05l-0.193,-0.11l-0.098,-0.057l-2.33,1.293l0.137,-0.057Zm-9.178,-17.663l0.893,-1.127c-0.419,0.419 -0.8,0.867 -1.141,1.337c0.075,-0.104 0.158,-0.173 0.248,-0.21Zm5.988,16.351c1.329,0.811 2.373,1.31 2.674,1.45c-0.532,-1.532 -6.535,-18.674 -8.662,-17.801l-0.703,0.883l-0.025,0.039c-0.567,0.925 -0.989,1.923 -1.263,2.958c3.108,-3.856 6.313,6.068 7.978,12.471Zm0,0c-3.574,-2.18 -9.212,-6.607 -8.016,-12.323c-0.568,2.265 -0.421,4.702 0.512,6.954c1.4,3.379 4.343,5.801 7.813,6.586l-0.309,-1.216Zm3.529,10.034l-7.926,-3.324l-1.311,-1.323l7.855,3.253l-10.228,-6.769l-0.861,-2.001l1.494,0.978c-1.183,-1.448 -2.008,-3.199 -2.34,-5.12l-0.082,-0.08l-0.014,-0.604c-0.044,-0.399 -0.066,-0.805 -0.066,-1.216c-0,-0 -0.002,-3.318 -0.075,-7.9c-0.678,-42.136 -5.279,-226.163 -6.63,-279.91l-27.565,-9.525l-908.035,539.354l0,560.38l1270.501,-738.645l-0.806,-142.29l-215.432,132.562c-0.814,2.443 -2.466,4.566 -4.723,5.953c-3.288,2.022 -7.391,2.192 -10.835,0.449l-0.938,-0.475c-1.364,-0.387 -2.657,-1.033 -3.796,-1.921l-3.329,-1.684c0,0 -65.18,-32.986 -77.768,-40.031c-1.62,-0.907 -2.756,-1.632 -3.385,-2.068c1.85,1.271 4.044,1.954 6.294,1.954Zm0,0c2.351,0 4.571,-0.739 6.402,-2.029l-3.073,-5.998l-3.329,8.028Z" style="fill:#fff;"/><path d="M2051.444,3362.589l-388.895,-299.886l-199.142,-93.344l-0.08,-0.038l-482.722,-230.948c-3.355,-1.605 -5.685,-4.783 -6.206,-8.465c-0.521,-3.683 0.834,-7.382 3.612,-9.856l639.176,-569.204c0.801,-0.714 1.702,-1.307 2.673,-1.763l1164.802,-546.038c3.593,-1.684 7.812,-1.325 11.068,0.944l112.234,78.204l598.303,-321.314l-232.853,-120.528c-3.533,-1.829 -5.819,-5.407 -5.993,-9.382c-0.174,-3.975 1.791,-7.739 5.151,-9.869l919.336,-582.902c2.812,-1.783 6.12,-2.146 9.083,-1.276c2.98,-0.808 6.28,-0.377 9.055,1.464l160.879,106.721l530.603,-212.362c2.103,-0.842 4.31,-0.995 6.374,-0.568c2.072,-0.389 4.277,-0.193 6.364,0.69l359.718,152.066l84.566,-92.812c3.289,-3.61 8.551,-4.649 12.965,-2.56l280.495,132.721c3.263,1.544 5.572,4.576 6.193,8.131c0.609,3.484 -0.478,7.044 -2.917,9.593l3.271,83.915c0.118,3.037 -1.013,5.99 -3.129,8.171l-27.928,28.775l610.161,346.603c0.574,0.326 1.118,0.703 1.626,1.126l642.701,535.639l95.089,-89.706c3.631,-3.425 9.1,-4.009 13.372,-1.427l394.311,238.309c3.067,1.854 5.052,5.073 5.33,8.646c0.278,3.573 -1.183,7.061 -3.926,9.368l0.001,91.713l344.838,163.778c3.459,1.643 5.828,4.951 6.27,8.754c0.442,3.804 -1.106,7.567 -4.096,9.959l-537.768,430.203c-0.811,0.649 -1.71,1.181 -2.669,1.581l-1374.632,572.477l-141.932,253.055c-1.186,2.115 -3.032,3.784 -5.256,4.752l-615.383,267.917l-385.783,401.212l0.106,1.649c0.277,4.236 0.658,8.128 0.658,8.128c0.066,0.677 0.07,1.354 0.013,2.022l0.154,-0.152l-0.013,1.308l-0.38,0.377c-0.322,1.41 -0.918,2.752 -1.761,3.944l1.687,-1.262l-0.443,1.528l-10.682,8.051l9.346,-5.101l-0.821,1.288l-9.39,5.17l8.51,-3.967c-0.765,0.912 -5.175,4.71 -13.071,10.187c-58.051,40.264 -351.751,231.249 -351.751,231.249l-3.252,2.115c-3.907,2.54 -8.984,2.373 -12.715,-0.42l-74.867,-56.035l-165.538,112.414c-4.425,3.005 -10.363,2.431 -14.13,-1.367l-174.436,-175.826l-320.607,-90.289c-1.462,-0.412 -2.824,-1.119 -4.002,-2.078l-354.765,-288.783l-599.909,-217.983c-0.938,-0.341 -1.803,-0.795 -2.584,-1.342l-77.908,41.815c-0.602,0.513 -1.264,0.966 -1.978,1.347c-3.477,1.855 -7.676,1.729 -11.036,-0.33l-423.79,-259.722c-2.483,-1.522 -4.157,-3.862 -4.889,-6.46c-1.863,-1.953 -3.023,-4.586 -3.067,-7.498l-1.003,-66.218Zm4806.125,-1595.311l-619.671,-516.445l-1.999,247.177l53.579,46.939c3.611,0.372 6.967,2.504 8.751,5.973l1.586,3.083l384.452,336.804c2.421,2.121 3.803,5.187 3.789,8.405l-1.201,281.794l182.601,158.608l397.332,174.434l417.832,-334.257l-315.159,-149.683c-0.742,-0.353 -1.428,-0.777 -2.051,-1.26l-52.743,36.936l0,219.602c0,2.577 -0.877,4.949 -2.349,6.834c-0.54,2.33 -1.832,4.504 -3.835,6.124l-104.667,84.667c-0.674,0.545 -1.392,0.998 -2.139,1.362c-0.941,2.01 -2.478,3.727 -4.46,4.884c-3.431,2.004 -7.671,2.023 -11.12,0.051l-383.446,-219.275c-3.46,-1.979 -5.595,-5.659 -5.595,-9.645l-0,-319.725c-1.954,-1.811 -3.212,-4.286 -3.497,-6.985c-0.363,-3.448 0.904,-6.867 3.425,-9.246l60.584,-57.154Zm495.265,231.085l0,-60.909l-151.969,127.767l1.632,275.985l78.837,-63.773l0,-220.267c0,-2.768 1.012,-5.299 2.686,-7.245c0.617,-2.529 2.12,-4.852 4.42,-6.463l64.394,-45.096Zm-699.208,163.294l1.042,-244.525l-488.993,-256.177l-4.598,253.413l492.549,247.289Zm-3128.066,-773.299l-602.006,323.303l1.012,189.102l263.869,186.907l341.224,-198.165l-4.099,-501.147Zm-1918.337,815.999l-582.09,518.368l442.453,211.682l146.64,-133.235l-5.874,-298.843c-0.723,-1.474 -1.129,-3.132 -1.129,-4.885l0.002,-52.45c-0.001,-0.149 -0.001,-0.297 -0,-0.445l-0.001,-240.193Zm1282.991,-493.902l-103.015,-71.781l-1146.642,537.525l-0.001,242.025l1196.756,-572.278c3.636,-1.738 7.927,-1.372 11.216,0.957l42.579,30.16l-0.891,-166.607Zm2696.289,-295.865l-1.566,-551.792c-0.008,-2.9 1.118,-5.689 3.138,-7.77l38.756,-39.932l-1.744,-44.73l-93.87,94.335l7.049,583.497l48.238,-33.607Zm-335.361,-636.407l8.095,553.933l245.718,118.214l-6.93,-573.649l-246.884,-98.499Zm-0.961,-67.12l-325.529,-137.613l4.192,512.638l295.633,148.668l-7.152,-489.395c-0.054,-3.714 1.75,-7.209 4.81,-9.315c2.091,-1.439 4.578,-2.1 7.045,-1.934l21.001,-23.049Zm-3609.068,1761.682l6.389,325.176l1236.702,904.578l-2.87,-320.58l-1240.221,-909.174Zm3864.184,-1629.05l104.194,-104.71l-237.482,-112.369l-109.524,120.203l242.813,96.875Zm699.458,383.423l-588.375,-334.227l0.72,253.579l585.626,331.559l2.029,-250.911Zm-3287.156,2482.141l1168.154,-556.904l-2.827,-368.03l-1168.245,599.072l2.918,325.862Zm1152.837,-955.99l-1230.524,-871.619l-1179.407,563.982l1238.846,908.165l1171.085,-600.529Zm2770.627,-924.592l341.983,207.977l157.911,-132.763l-353.29,-213.518l-146.604,138.303Zm-270.613,6.705l-287.326,-251.701l-97.449,50.122l384.775,201.579Zm-3042.042,-500.573l30.61,15.844c3.661,1.895 5.972,5.661 6.003,9.783c0.031,4.122 -2.222,7.923 -5.854,9.873l-0.413,0.222c0.188,21.503 0.659,75.357 1.224,141.058l835.629,499.602l882.585,-534.82l-1078.209,-578.284l-671.575,436.722Zm655.924,-652.334l-861.234,546.062l171.294,88.664l690.955,-449.325l-1.016,-185.402Zm2983.204,1383.759l-337.147,-205.036l-0,286.3l338.774,193.729l-1.627,-274.994Zm-2497.166,2057.733l-9.828,12.266l0.293,-0.036l9.478,-9.348c0.144,-0.95 0.164,-1.919 0.058,-2.881Zm-318.037,-3181.958l-0,-169.231l-134.662,-89.33l1.024,186.886l133.639,71.675Zm538.978,-369.266l-505.644,202.372l0,184.772l364.66,195.581l145.192,-68.242l-4.207,-514.483Zm-3391.097,2377.057l178.69,83.758c0.734,0.344 1.428,0.767 2.069,1.262l369.826,285.181l-0.575,-37.969c-0.083,-5.498 3.842,-10.124 9.074,-11.093c2.421,-3.581 6.826,-5.564 11.336,-4.685l118.472,23.1c1.43,0.279 2.791,0.836 4.006,1.64l412.159,272.781l1.328,0.291c5.1,1.117 8.735,5.633 8.735,10.854l0,0.825c0.015,0.249 0.022,0.499 0.02,0.75l-0.02,2.953l0,50.888c-0,3.007 -1.194,5.735 -3.135,7.735l253.279,92.031l-1232.149,-901.248l-133.115,120.946Zm3994.287,536.355l156.261,-68.031l81.817,-145.875l-774.855,-628.712l-7.275,411.013l544.051,431.604Zm254.624,-243.406l43.666,-77.853c1.216,-2.168 3.124,-3.866 5.419,-4.822l923.022,-384.4l-705.729,-604.682l-1041.881,442.52l775.503,629.237Zm-1604.702,1087.138l61.047,-41.456c3.923,-2.664 9.104,-2.545 12.9,0.297l58.035,43.437l-0.318,-34.84l-130.019,-58.499l-1.645,91.061Zm165.337,4.489c73.003,-47.538 277.555,-180.918 324.912,-213.764l1.965,-1.377l-0.038,-0.583c-0.662,-10.143 -1.522,-26.72 -2.239,-41.275l-324.974,216.063l0.374,40.937Zm-1807.326,-673.542l79.301,-42.562l0.174,-25.49l-76.012,-16.641l-3.463,84.693Zm-416.797,-241.697l383.703,235.155l3.554,-86.913l-388.793,-249.699l1.536,101.458Zm2203.706,847.601l316.681,-210.549l-152.523,-27.67l-285.079,183.812l120.922,54.406Zm89.424,-2226.674l-818.452,-489.332c1.088,127.048 2.372,280.48 2.711,335.057l812.402,474.142c0.947,-70.824 3.159,-243.028 3.338,-319.867Zm914.458,-533.824l-881.125,533.934c-0.177,75.258 -2.295,241.633 -3.276,315.274l887.413,-562.823l-3.013,-286.385Zm-2778.204,2037.777l-336.625,-222.79l-38.897,-7.584l350.005,224.788l25.517,5.586Zm2148.03,592.192c-0.392,0.134 -0.792,0.246 -1.198,0.335l-2.289,2.272l3.487,-2.607Zm6.872,-7.674l-7.329,7.275c0.864,-0.266 1.691,-0.636 2.463,-1.1l1.783,-1.333c0.552,-0.506 1.055,-1.071 1.502,-1.69c0.701,-0.972 1.23,-2.037 1.582,-3.151Zm-9.822,8.251l-0.522,0.652l0.67,-0.661l-0.148,0.01Zm2197.29,-1767.118l-1.181,-0.464c0.365,-0.003 0.569,-0.036 0.569,-0.036l-7.287,-2.723l-188.584,-163.832l-527.288,-264.73c-3.82,-1.918 -6.201,-5.857 -6.124,-10.131l5.401,-297.706c0.074,-4.09 2.39,-7.808 6.027,-9.679l117.24,-60.301l-41.269,-36.152l-1.428,-0.012c-4.791,-0.039 -8.849,-3.104 -10.375,-7.367l-585.882,-331.684l0.692,243.657c0.005,1.643 -0.348,3.204 -0.984,4.609c-0.728,2.23 -2.163,4.239 -4.21,5.666l-75.399,52.531c-0.883,1.58 -2.153,2.946 -3.729,3.951c-1.54,0.981 -3.269,1.551 -5.031,1.7c-2.095,0.763 -4.393,0.886 -6.594,0.315c-2.82,-0.732 -5.226,-2.538 -6.719,-5.009l-282.833,-136.071c-3.795,-1.826 -6.231,-5.64 -6.293,-9.85l-1.082,-74.003l-311.606,-156.7l-126.494,59.454l533.402,286.084c3.571,1.915 5.816,5.623 5.859,9.675l3.511,333.756c0.04,3.846 -1.911,7.44 -5.159,9.5l-916.998,581.587c-0.573,1.434 -1.444,2.747 -2.572,3.845c-2.113,2.054 -4.955,3.186 -7.901,3.144l-1.47,-0.021l-3.012,1.035c0,0 0.35,0.043 0.978,-0.011l-2.654,0.599l0.555,-0.014l-1.928,0.087l-2.986,-0.541c0.64,0.061 0.994,0.026 0.994,0.026l-4.601,-0.998c-0.949,-0.432 -9.168,-5.048 -23.265,-13.196c-122.864,-71.009 -723.665,-422.529 -810.157,-473.138l-331.185,192.334l893.797,633.105c4.274,3.027 5.762,8.522 3.902,13.18l0.031,4.011c0.103,0.843 0.108,1.689 0.019,2.521l3.107,404.574c0.033,4.315 -2.435,8.258 -6.329,10.115l-1198.662,571.449l278.316,101.129c1.168,0.424 2.256,1.042 3.22,1.826l354.104,288.245l321.805,90.627c1.846,0.52 3.525,1.508 4.876,2.87l165.561,166.881l68.585,-46.575l2.357,-130.449c-1.196,-1.642 -1.941,-3.611 -2.099,-5.71c-0.305,-4.061 1.636,-7.963 5.059,-10.17l326.825,-210.729c2.369,-1.528 5.231,-2.098 8.004,-1.594l195.238,35.419l2.508,-1.667c3.335,-2.217 7.605,-2.468 11.177,-0.657c3.572,1.811 5.893,5.404 6.075,9.405l0.447,9.812c0,0 0.452,9.942 1.075,22.792l367.253,-381.941c1.016,-1.056 2.23,-1.901 3.574,-2.486l421.709,-183.598l-525.059,-416.538l-7.119,-0.126c-6.136,-0.109 -11.021,-5.17 -10.913,-11.306l8.222,-464.556c0.058,-3.295 1.545,-6.23 3.86,-8.224c0.955,-2.962 3.143,-5.509 6.233,-6.821l1080.06,-458.736c3.884,-1.65 8.368,-0.957 11.573,1.789l728.979,624.603l421.328,-175.465l60.367,-48.293l-384.48,-168.829c1.408,0.618 2.929,0.938 4.467,0.938Zm0,0c4.468,0 8.415,-2.661 10.163,-6.618l-6.752,-2.964l-3.412,9.582Z" style="fill:#fff;"/></g></g></g></svg>